<svg width="15" height="15" viewBox="0 0 15 15" fill="none" xmlns="http://www.w3.org/2000/svg">
<g clip-path="url(#clip0_103_258)">
<path d="M10.2343 2.03115C10.9589 2.03332 11.6532 2.32212 12.1655 2.83448C12.6779 3.34684 12.9667 4.04114 12.9688 4.76572V10.2343C12.9667 10.9589 12.6779 11.6532 12.1655 12.1655C11.6532 12.6779 10.9589 12.9667 10.2343 12.9688H4.76572C4.04114 12.9667 3.34684 12.6779 2.83448 12.1655C2.32212 11.6532 2.03332 10.9589 2.03115 10.2343V4.76572C2.03332 4.04114 2.32212 3.34684 2.83448 2.83448C3.34684 2.32212 4.04114 2.03332 4.76572 2.03115H10.2343ZM10.2343 0.9375H4.76572C2.66016 0.9375 0.9375 2.66016 0.9375 4.76572V10.2343C0.9375 12.3398 2.66016 14.0625 4.76572 14.0625H10.2343C12.3398 14.0625 14.0625 12.3398 14.0625 10.2343V4.76572C14.0625 2.66016 12.3398 0.9375 10.2343 0.9375Z" fill="black"/>
<path d="M11.0546 4.76563C10.8923 4.76563 10.7338 4.71752 10.5989 4.62738C10.464 4.53724 10.3588 4.40913 10.2967 4.25923C10.2346 4.10934 10.2184 3.9444 10.25 3.78528C10.2817 3.62615 10.3598 3.47999 10.4745 3.36526C10.5893 3.25054 10.7354 3.17241 10.8946 3.14076C11.0537 3.10911 11.2186 3.12536 11.3685 3.18744C11.5184 3.24953 11.6465 3.35467 11.7367 3.48957C11.8268 3.62447 11.8749 3.78307 11.8749 3.94531C11.8751 4.0531 11.8541 4.15988 11.8129 4.25951C11.7718 4.35914 11.7114 4.44966 11.6352 4.52588C11.5589 4.6021 11.4684 4.66251 11.3688 4.70365C11.2692 4.7448 11.1624 4.76586 11.0546 4.76563ZM7.5 5.31231C7.93267 5.31231 8.35562 5.44061 8.71537 5.68098C9.07511 5.92136 9.3555 6.26301 9.52108 6.66275C9.68665 7.06248 9.72997 7.50233 9.64556 7.92668C9.56116 8.35103 9.35281 8.74083 9.04687 9.04677C8.74093 9.35271 8.35113 9.56106 7.92678 9.64547C7.50243 9.72987 7.06258 9.68655 6.66284 9.52098C6.26311 9.3554 5.92146 9.07502 5.68108 8.71527C5.4407 8.35552 5.3124 7.93257 5.3124 7.4999C5.31302 6.91991 5.5437 6.36384 5.95382 5.95372C6.36394 5.5436 6.92 5.31293 7.5 5.31231ZM7.5 4.21865C6.85103 4.21865 6.21664 4.41109 5.67704 4.77164C5.13744 5.13219 4.71687 5.64465 4.46852 6.24422C4.22017 6.84379 4.15519 7.50354 4.2818 8.14004C4.40841 8.77654 4.72092 9.36121 5.17981 9.8201C5.6387 10.279 6.22336 10.5915 6.85986 10.7181C7.49636 10.8447 8.15611 10.7797 8.75568 10.5314C9.35525 10.283 9.86771 9.86247 10.2283 9.32287C10.5888 8.78327 10.7813 8.14887 10.7813 7.4999C10.7813 6.62966 10.4355 5.79506 9.8202 5.17971C9.20484 4.56435 8.37024 4.21865 7.5 4.21865Z" fill="black"/>
</g>
<defs>
<clipPath id="clip0_103_258">
<rect width="15" height="15" fill="white"/>
</clipPath>
</defs>
</svg>
