<svg width="15" height="15" viewBox="0 0 15 15" fill="none" xmlns="http://www.w3.org/2000/svg">
<g clip-path="url(#clip0_103_261)">
<path d="M13.0128 0.9375H2.05898C1.46045 0.9375 0.9375 1.36816 0.9375 1.95967V12.9378C0.9375 13.5325 1.46045 14.0625 2.05898 14.0625H13.0096C13.6113 14.0625 14.0625 13.529 14.0625 12.9378V1.95967C14.066 1.36816 13.6113 0.9375 13.0128 0.9375ZM5.00596 11.8778H3.12568V6.03164H5.00596V11.8778ZM4.13086 5.14277H4.11738C3.51562 5.14277 3.12598 4.69482 3.12598 4.13408C3.12598 3.56309 3.52588 3.12568 4.14111 3.12568C4.75635 3.12568 5.13281 3.55986 5.14629 4.13408C5.146 4.69482 4.75635 5.14277 4.13086 5.14277ZM11.8778 11.8778H9.99756V8.68125C9.99756 7.91543 9.72393 7.39219 9.04365 7.39219C8.52393 7.39219 8.21631 7.74375 8.07949 8.08623C8.02822 8.20928 8.01445 8.37686 8.01445 8.54795V11.8778H6.13418V6.03164H8.01445V6.84521C8.28809 6.45557 8.71553 5.89482 9.71016 5.89482C10.9444 5.89482 11.8781 6.7084 11.8781 8.4624L11.8778 11.8778Z" fill="black"/>
</g>
<defs>
<clipPath id="clip0_103_261">
<rect width="15" height="15" fill="white"/>
</clipPath>
</defs>
</svg>
