<svg width="572" height="151" viewBox="0 0 572 151" fill="none" xmlns="http://www.w3.org/2000/svg">
<path d="M19.432 63.08H46.312L46.984 65.48H18.184L19.432 63.08ZM69.256 87.848C69.512 87.848 69.64 88.04 69.64 88.424C69.64 88.808 69.512 89 69.256 89C68.04 89 66.088 88.936 63.4 88.808C60.712 88.68 58.76 88.616 57.544 88.616C55.944 88.616 54.056 88.68 51.88 88.808C49.704 88.936 48.008 89 46.792 89C46.536 89 46.408 88.808 46.408 88.424C46.408 88.04 46.536 87.848 46.792 87.848C48.712 87.848 50.088 87.656 50.92 87.272C51.752 86.824 52.168 86.12 52.168 85.16C52.168 84.2 51.624 82.568 50.536 80.264L30.472 39.464L34.408 33.032L15.4 75.848C14.568 77.768 14.152 79.496 14.152 81.032C14.152 83.272 14.952 84.968 16.552 86.12C18.152 87.272 20.392 87.848 23.272 87.848C23.592 87.848 23.752 88.04 23.752 88.424C23.752 88.808 23.592 89 23.272 89C22.12 89 20.456 88.936 18.28 88.808C15.848 88.68 13.736 88.616 11.944 88.616C10.216 88.616 8.2 88.68 5.896 88.808C3.848 88.936 2.152 89 0.808 89C0.488 89 0.328 88.808 0.328 88.424C0.328 88.04 0.488 87.848 0.808 87.848C2.6 87.848 4.104 87.496 5.32 86.792C6.536 86.088 7.72 84.84 8.872 83.048C10.024 81.192 11.4 78.472 13 74.888L33.64 28.424C33.768 28.232 34.056 28.136 34.504 28.136C34.952 28.136 35.208 28.232 35.272 28.424L58.792 75.848C60.968 80.456 62.792 83.624 64.264 85.352C65.8 87.016 67.464 87.848 69.256 87.848ZM83.458 61.832C86.914 57.736 89.666 54.92 91.714 53.384C93.762 51.784 95.586 50.984 97.186 50.984C98.594 50.984 99.97 51.464 101.314 52.424C102.658 53.384 103.33 54.536 103.33 55.88C103.33 57.096 102.978 58.088 102.274 58.856C101.57 59.56 100.578 59.912 99.298 59.912C98.466 59.912 97.794 59.752 97.282 59.432C96.77 59.112 96.194 58.632 95.554 57.992C94.978 57.416 94.466 57 94.018 56.744C93.57 56.424 93.026 56.264 92.386 56.264C91.554 56.264 90.594 56.68 89.506 57.512C88.482 58.344 86.69 60.168 84.13 62.984L83.458 61.832ZM73.186 89C72.994 89 72.898 88.808 72.898 88.424C72.898 88.04 72.994 87.848 73.186 87.848C75.362 87.848 76.802 87.4 77.506 86.504C78.21 85.608 78.562 83.848 78.562 81.224V62.888C78.562 60.84 78.306 59.336 77.794 58.376C77.346 57.416 76.578 56.936 75.49 56.936C74.53 56.936 72.93 57.416 70.69 58.376H70.594C70.338 58.376 70.146 58.216 70.018 57.896C69.89 57.576 69.922 57.384 70.114 57.32L82.69 51.176C83.074 51.048 83.298 50.984 83.362 50.984C84.066 50.984 84.738 51.784 85.378 53.384C86.018 54.984 86.338 57.064 86.338 59.624V81.224C86.338 83.016 86.594 84.392 87.106 85.352C87.618 86.248 88.482 86.888 89.698 87.272C90.978 87.656 92.802 87.848 95.17 87.848C95.426 87.848 95.554 88.04 95.554 88.424C95.554 88.808 95.426 89 95.17 89C92.994 89 91.266 88.968 89.986 88.904L82.498 88.808L76.93 88.904C76.034 88.968 74.786 89 73.186 89ZM123.3 90.056C119.844 90.056 117.156 89 115.236 86.888C113.316 84.712 112.356 81.768 112.356 78.056V63.752C112.356 61.512 112.1 59.88 111.588 58.856C111.14 57.768 110.404 57.224 109.38 57.224C108.548 57.224 107.652 57.48 106.692 57.992H106.596C106.34 57.992 106.148 57.832 106.02 57.512C105.892 57.192 105.924 56.968 106.116 56.84L118.212 51.176L118.692 51.08C118.948 51.08 119.236 51.208 119.556 51.464C119.876 51.72 120.036 51.944 120.036 52.136V73.928C120.036 77.512 120.676 80.2 121.956 81.992C123.3 83.72 125.316 84.584 128.004 84.584C130.052 84.584 132.1 84.008 134.148 82.856C136.26 81.64 137.988 80.072 139.332 78.152L139.908 79.304C134.66 86.472 129.124 90.056 123.3 90.056ZM145.188 78.152C145.188 80.328 145.412 81.896 145.86 82.856C146.308 83.752 147.076 84.2 148.164 84.2C148.932 84.2 150.372 83.816 152.484 83.048L152.676 82.952C152.868 82.952 153.028 83.112 153.156 83.432C153.284 83.752 153.252 83.976 153.06 84.104L140.484 90.152L140.1 90.248C139.396 90.248 138.788 89.448 138.276 87.848C137.764 86.248 137.508 84.104 137.508 81.416V63.752C137.508 61.512 137.252 59.88 136.74 58.856C136.292 57.768 135.556 57.224 134.532 57.224C133.764 57.224 132.868 57.48 131.844 57.992H131.748C131.492 57.992 131.3 57.832 131.172 57.512C131.044 57.128 131.108 56.904 131.364 56.84L143.46 51.176L143.844 51.08C144.1 51.08 144.388 51.208 144.708 51.464C145.028 51.72 145.188 51.944 145.188 52.136V78.152ZM156.802 89C156.61 89 156.514 88.808 156.514 88.424C156.514 88.04 156.61 87.848 156.802 87.848C158.978 87.848 160.418 87.4 161.122 86.504C161.89 85.608 162.274 83.848 162.274 81.224V32.168C162.274 29.928 162.05 28.328 161.602 27.368C161.218 26.344 160.514 25.832 159.49 25.832C158.53 25.832 157.218 26.216 155.554 26.984H155.458C155.202 26.984 155.01 26.824 154.882 26.504C154.754 26.184 154.754 25.96 154.882 25.832L168.418 19.496L168.802 19.4C169.058 19.4 169.346 19.528 169.666 19.784C169.986 20.04 170.146 20.264 170.146 20.456V81.224C170.146 83.848 170.498 85.608 171.202 86.504C171.97 87.4 173.442 87.848 175.618 87.848C175.81 87.848 175.906 88.04 175.906 88.424C175.906 88.808 175.81 89 175.618 89C174.018 89 172.738 88.968 171.778 88.904L166.21 88.808L160.642 88.904C159.682 88.968 158.402 89 156.802 89ZM231.396 55.112C235.492 55.112 239.108 55.816 242.244 57.224C245.38 58.632 247.812 60.584 249.54 63.08C251.268 65.512 252.132 68.328 252.132 71.528C252.132 74.856 251.204 77.896 249.348 80.648C247.492 83.336 244.964 85.48 241.764 87.08C238.564 88.616 234.98 89.384 231.012 89.384C229.156 89.384 227.012 89.288 224.58 89.096C223.748 89.032 222.692 88.968 221.412 88.904C220.132 88.84 218.692 88.808 217.092 88.808L210.18 88.904C208.964 88.968 207.3 89 205.188 89C204.996 89 204.9 88.808 204.9 88.424C204.9 88.04 204.996 87.848 205.188 87.848C207.236 87.848 208.772 87.688 209.796 87.368C210.82 86.984 211.524 86.344 211.908 85.448C212.356 84.552 212.58 83.144 212.58 81.224V36.776C212.58 34.92 212.388 33.544 212.004 32.648C211.62 31.688 210.916 31.048 209.892 30.728C208.868 30.344 207.332 30.152 205.284 30.152C205.156 30.152 205.092 29.96 205.092 29.576C205.092 29.192 205.156 29 205.284 29L210.276 29.096C213.092 29.224 215.364 29.288 217.092 29.288C218.884 29.288 220.772 29.192 222.756 29C223.46 28.936 224.292 28.872 225.252 28.808C226.276 28.744 227.428 28.712 228.708 28.712C234.404 28.712 238.756 29.8 241.764 31.976C244.772 34.152 246.276 37.224 246.276 41.192C246.276 44.84 244.868 48.04 242.052 50.792C239.3 53.544 235.396 55.496 230.34 56.648L231.396 55.112ZM227.076 30.632C225.028 30.632 223.62 31.048 222.852 31.88C222.148 32.712 221.796 34.408 221.796 36.968V55.784L218.34 55.112C221.156 55.24 223.62 55.304 225.732 55.304C229.508 55.304 232.356 54.088 234.276 51.656C236.26 49.16 237.252 45.96 237.252 42.056C237.252 38.408 236.388 35.592 234.66 33.608C232.996 31.624 230.468 30.632 227.076 30.632ZM229.476 87.176C238.116 87.176 242.436 82.728 242.436 73.832C242.436 68.968 241.156 65.064 238.596 62.12C236.1 59.176 232.42 57.704 227.556 57.704C223.972 57.704 221.028 57.896 218.724 58.28L221.796 57.128V81.224C221.796 82.696 221.956 83.848 222.276 84.68C222.66 85.512 223.396 86.152 224.484 86.6C225.636 86.984 227.3 87.176 229.476 87.176ZM287.463 89.576C287.207 89.704 286.919 89.768 286.599 89.768C285.447 89.768 284.391 89 283.431 87.464C282.471 85.864 281.991 83.752 281.991 81.128V64.232C281.991 60.264 281.575 57.384 280.743 55.592C279.975 53.736 278.727 52.808 276.999 52.808C274.887 52.808 273.351 53.608 272.391 55.208C271.495 56.744 270.951 58.472 270.759 60.392C270.375 63.656 268.743 65.288 265.863 65.288C264.455 65.288 263.399 64.968 262.695 64.328C262.055 63.688 261.735 62.888 261.735 61.928C261.735 60.136 262.791 58.408 264.903 56.744C267.079 55.016 269.671 53.64 272.679 52.616C275.751 51.528 278.439 50.984 280.743 50.984C283.495 50.984 285.671 51.848 287.271 53.576C288.935 55.304 289.767 57.896 289.767 61.352V78.632C289.767 82.664 291.015 84.68 293.511 84.68C294.471 84.68 295.623 84.392 296.967 83.816H297.159C297.415 83.816 297.575 83.976 297.639 84.296C297.703 84.552 297.607 84.744 297.351 84.872L287.463 89.576ZM269.415 89.672C266.791 89.672 264.807 89.064 263.463 87.848C262.119 86.632 261.447 84.968 261.447 82.856C261.447 81.128 261.895 79.72 262.791 78.632C263.751 77.544 264.935 76.68 266.343 76.04C267.751 75.336 269.863 74.472 272.679 73.448L282.951 69.608L283.239 71.048L276.231 74.024C274.503 74.728 273.127 75.496 272.103 76.328C271.079 77.16 270.567 78.408 270.567 80.072C270.567 81.608 271.047 82.824 272.007 83.72C273.031 84.616 274.215 85.064 275.559 85.064C276.775 85.064 278.023 84.68 279.303 83.912L284.487 80.456L284.583 81.896L277.767 86.696C276.231 87.784 274.823 88.552 273.543 89C272.327 89.448 270.951 89.672 269.415 89.672ZM299.552 89C299.36 89 299.264 88.808 299.264 88.424C299.264 88.04 299.36 87.848 299.552 87.848C301.728 87.848 303.168 87.4 303.872 86.504C304.64 85.608 305.024 83.848 305.024 81.224V32.168C305.024 29.928 304.8 28.328 304.352 27.368C303.904 26.344 303.168 25.832 302.144 25.832C301.184 25.832 299.872 26.216 298.208 26.984H298.112C297.92 26.984 297.728 26.824 297.536 26.504C297.408 26.12 297.44 25.896 297.632 25.832L310.976 19.496L311.456 19.4C311.712 19.4 311.968 19.528 312.224 19.784C312.544 20.04 312.704 20.264 312.704 20.456V81.224C312.704 83.848 313.056 85.608 313.76 86.504C314.528 87.4 316 87.848 318.176 87.848C318.432 87.848 318.56 88.04 318.56 88.424C318.56 88.808 318.432 89 318.176 89C316.576 89 315.296 88.968 314.336 88.904L308.864 88.808L303.392 88.904C302.432 88.968 301.152 89 299.552 89ZM323.648 89C323.52 89 323.456 88.808 323.456 88.424C323.456 88.04 323.52 87.848 323.648 87.848C326.336 87.848 327.68 87.208 327.68 85.928C327.68 85.352 327.392 84.68 326.816 83.912L315.008 68.456L320.768 64.04L333.92 81.224C337.248 85.64 340.8 87.848 344.576 87.848C344.768 87.848 344.864 88.04 344.864 88.424C344.864 88.808 344.768 89 344.576 89C342.976 89 341.696 88.968 340.736 88.904L335.264 88.808L328.064 88.904C326.976 88.968 325.504 89 323.648 89ZM309.344 72.68L322.976 60.296C324.768 58.76 325.664 57.256 325.664 55.784C325.664 55.016 325.28 54.376 324.512 53.864C323.808 53.352 322.784 53.096 321.44 53.096C321.248 53.096 321.152 52.904 321.152 52.52C321.152 52.136 321.248 51.944 321.44 51.944C323.232 51.944 324.64 51.976 325.664 52.04L332.96 52.136L339.776 52.04C340.672 51.976 341.888 51.944 343.424 51.944C343.616 51.944 343.712 52.136 343.712 52.52C343.712 52.904 343.616 53.096 343.424 53.096C340.8 53.096 337.824 53.768 334.496 55.112C331.168 56.392 328.096 58.28 325.28 60.776L309.824 74.12L309.344 72.68ZM374.932 89.576C374.676 89.704 374.388 89.768 374.068 89.768C372.916 89.768 371.86 89 370.9 87.464C369.94 85.864 369.46 83.752 369.46 81.128V64.232C369.46 60.264 369.044 57.384 368.212 55.592C367.444 53.736 366.196 52.808 364.468 52.808C362.356 52.808 360.82 53.608 359.86 55.208C358.964 56.744 358.42 58.472 358.228 60.392C357.844 63.656 356.212 65.288 353.332 65.288C351.924 65.288 350.868 64.968 350.164 64.328C349.524 63.688 349.204 62.888 349.204 61.928C349.204 60.136 350.26 58.408 352.372 56.744C354.548 55.016 357.14 53.64 360.148 52.616C363.22 51.528 365.908 50.984 368.212 50.984C370.964 50.984 373.14 51.848 374.74 53.576C376.404 55.304 377.236 57.896 377.236 61.352V78.632C377.236 82.664 378.484 84.68 380.98 84.68C381.94 84.68 383.092 84.392 384.436 83.816H384.628C384.884 83.816 385.044 83.976 385.108 84.296C385.172 84.552 385.076 84.744 384.82 84.872L374.932 89.576ZM356.884 89.672C354.26 89.672 352.276 89.064 350.932 87.848C349.588 86.632 348.916 84.968 348.916 82.856C348.916 81.128 349.364 79.72 350.26 78.632C351.22 77.544 352.404 76.68 353.812 76.04C355.22 75.336 357.332 74.472 360.148 73.448L370.42 69.608L370.708 71.048L363.7 74.024C361.972 74.728 360.596 75.496 359.572 76.328C358.548 77.16 358.036 78.408 358.036 80.072C358.036 81.608 358.516 82.824 359.476 83.72C360.5 84.616 361.684 85.064 363.028 85.064C364.244 85.064 365.492 84.68 366.772 83.912L371.956 80.456L372.052 81.896L365.236 86.696C363.7 87.784 362.292 88.552 361.012 89C359.796 89.448 358.42 89.672 356.884 89.672ZM426.504 51.944C426.632 51.944 426.696 52.136 426.696 52.52C426.696 52.904 426.632 53.096 426.504 53.096C424.712 53.096 423.144 53.736 421.8 55.016C420.52 56.296 419.272 58.344 418.056 61.16L406.152 89C406.024 89.32 405.704 89.48 405.192 89.48C404.616 89.48 404.232 89.32 404.04 89L389.832 59.912C388.424 57.096 387.24 55.272 386.28 54.44C385.384 53.544 384.231 53.096 382.823 53.096C382.631 53.096 382.535 52.904 382.535 52.52C382.535 52.136 382.631 51.944 382.823 51.944C383.976 51.944 384.904 51.976 385.608 52.04L391.176 52.136L398.184 52.04C399.208 51.976 400.648 51.944 402.504 51.944C402.696 51.944 402.792 52.136 402.792 52.52C402.792 52.904 402.696 53.096 402.504 53.096C398.728 53.096 396.84 53.832 396.84 55.304C396.84 55.688 397 56.2 397.32 56.84L409.031 80.072L404.904 86.984L415.656 60.968C416.104 59.88 416.328 58.824 416.328 57.8C416.328 56.264 415.752 55.112 414.6 54.344C413.512 53.512 411.88 53.096 409.704 53.096C409.576 53.096 409.512 52.904 409.512 52.52C409.512 52.136 409.576 51.944 409.704 51.944C411.432 51.944 412.744 51.976 413.64 52.04L419.4 52.136L423.144 52.04C423.848 51.976 424.968 51.944 426.504 51.944ZM455.088 89.576C454.832 89.704 454.544 89.768 454.224 89.768C453.072 89.768 452.016 89 451.056 87.464C450.096 85.864 449.616 83.752 449.616 81.128V64.232C449.616 60.264 449.2 57.384 448.368 55.592C447.6 53.736 446.352 52.808 444.624 52.808C442.512 52.808 440.976 53.608 440.016 55.208C439.12 56.744 438.576 58.472 438.384 60.392C438 63.656 436.368 65.288 433.488 65.288C432.08 65.288 431.024 64.968 430.32 64.328C429.68 63.688 429.36 62.888 429.36 61.928C429.36 60.136 430.416 58.408 432.528 56.744C434.704 55.016 437.296 53.64 440.304 52.616C443.376 51.528 446.064 50.984 448.368 50.984C451.12 50.984 453.296 51.848 454.896 53.576C456.56 55.304 457.392 57.896 457.392 61.352V78.632C457.392 82.664 458.64 84.68 461.136 84.68C462.096 84.68 463.248 84.392 464.592 83.816H464.784C465.04 83.816 465.2 83.976 465.264 84.296C465.328 84.552 465.232 84.744 464.976 84.872L455.088 89.576ZM437.04 89.672C434.416 89.672 432.432 89.064 431.088 87.848C429.744 86.632 429.072 84.968 429.072 82.856C429.072 81.128 429.52 79.72 430.416 78.632C431.376 77.544 432.56 76.68 433.968 76.04C435.376 75.336 437.488 74.472 440.304 73.448L450.576 69.608L450.864 71.048L443.856 74.024C442.128 74.728 440.752 75.496 439.728 76.328C438.704 77.16 438.192 78.408 438.192 80.072C438.192 81.608 438.672 82.824 439.632 83.72C440.656 84.616 441.84 85.064 443.184 85.064C444.4 85.064 445.648 84.68 446.928 83.912L452.112 80.456L452.208 81.896L445.392 86.696C443.856 87.784 442.448 88.552 441.168 89C439.952 89.448 438.576 89.672 437.04 89.672ZM482.729 90.152C479.977 90.152 477.641 89.512 475.721 88.232C473.865 86.888 472.937 84.68 472.937 81.608V59.912C472.937 57.8 472.585 56.392 471.881 55.688C471.241 54.984 469.961 54.632 468.041 54.632C467.977 54.632 467.881 54.568 467.753 54.44C467.689 54.248 467.657 54.056 467.657 53.864C467.657 53.672 467.689 53.512 467.753 53.384C467.881 53.192 467.977 53.096 468.041 53.096C474.057 52.84 477.833 50.248 479.369 45.32C479.433 45.064 479.689 44.936 480.137 44.936C480.585 44.936 480.809 45.064 480.809 45.32V78.44C480.809 80.936 481.417 82.792 482.633 84.008C483.913 85.16 485.673 85.736 487.913 85.736C490.601 85.736 493.129 84.808 495.497 82.952L495.689 82.856C495.881 82.856 496.041 83.016 496.169 83.336C496.361 83.592 496.361 83.784 496.169 83.912C493.801 86.088 491.561 87.688 489.449 88.712C487.337 89.672 485.097 90.152 482.729 90.152ZM493.193 56.744C488.585 55.72 483.529 55.208 478.025 55.208V52.904C482.121 52.904 487.305 52.584 493.577 51.944C493.705 51.944 493.833 52.2 493.961 52.712C494.153 53.16 494.249 53.672 494.249 54.248C494.249 54.824 494.121 55.4 493.865 55.976C493.673 56.552 493.449 56.808 493.193 56.744ZM499.521 89C499.329 89 499.233 88.808 499.233 88.424C499.233 88.04 499.329 87.848 499.521 87.848C501.697 87.848 503.137 87.4 503.841 86.504C504.609 85.608 504.993 83.848 504.993 81.224V32.168C504.993 29.928 504.769 28.328 504.321 27.368C503.873 26.344 503.137 25.832 502.113 25.832C501.153 25.832 499.841 26.216 498.177 26.984H498.081C497.889 26.984 497.697 26.824 497.505 26.504C497.377 26.12 497.409 25.896 497.601 25.832L510.945 19.496L511.424 19.4C511.681 19.4 511.937 19.528 512.193 19.784C512.513 20.04 512.673 20.264 512.673 20.456V81.224C512.673 83.848 513.025 85.608 513.729 86.504C514.497 87.4 515.969 87.848 518.145 87.848C518.401 87.848 518.529 88.04 518.529 88.424C518.529 88.808 518.401 89 518.145 89C516.545 89 515.265 88.968 514.305 88.904L508.833 88.808L503.361 88.904C502.401 88.968 501.121 89 499.521 89ZM525.345 89C525.153 89 525.057 88.808 525.057 88.424C525.057 88.04 525.153 87.848 525.345 87.848C527.521 87.848 528.961 87.4 529.665 86.504C530.433 85.608 530.817 83.848 530.817 81.224V66.92C530.817 63.336 530.145 60.68 528.801 58.952C527.457 57.224 525.377 56.36 522.561 56.36C520.449 56.36 518.337 56.968 516.225 58.184C514.113 59.336 512.353 60.872 510.945 62.792L510.465 61.64C515.585 54.472 521.217 50.888 527.361 50.888C530.817 50.888 533.537 51.944 535.521 54.056C537.505 56.168 538.497 59.048 538.497 62.696V81.224C538.497 83.848 538.849 85.608 539.553 86.504C540.321 87.4 541.793 87.848 543.969 87.848C544.225 87.848 544.353 88.04 544.353 88.424C544.353 88.808 544.225 89 543.969 89C542.369 89 541.089 88.968 540.129 88.904L534.657 88.808L529.185 88.904C528.225 88.968 526.945 89 525.345 89ZM550.005 89C549.813 89 549.717 88.808 549.717 88.424C549.717 88.04 549.813 87.848 550.005 87.848C552.181 87.848 553.621 87.4 554.325 86.504C555.093 85.608 555.477 83.848 555.477 81.224V63.752C555.477 61.576 555.253 60.008 554.805 59.048C554.357 58.024 553.589 57.512 552.501 57.512C551.477 57.512 550.197 57.896 548.661 58.664H548.565C548.309 58.664 548.117 58.504 547.989 58.184C547.861 57.864 547.893 57.64 548.085 57.512L561.909 51.08L562.197 50.984C562.453 50.984 562.709 51.144 562.965 51.464C563.285 51.72 563.445 51.944 563.445 52.136V54.152C563.317 56.84 563.253 60.008 563.253 63.656V81.224C563.253 83.848 563.605 85.608 564.309 86.504C565.077 87.4 566.549 87.848 568.725 87.848C568.917 87.848 569.013 88.04 569.013 88.424C569.013 88.808 568.917 89 568.725 89C567.125 89 565.845 88.968 564.885 88.904L559.317 88.808L553.749 88.904C552.853 88.968 551.605 89 550.005 89ZM558.837 40.904C557.173 40.904 555.861 40.456 554.901 39.56C554.005 38.664 553.557 37.384 553.557 35.72C553.557 34.184 554.005 32.968 554.901 32.072C555.861 31.176 557.173 30.728 558.837 30.728C560.437 30.728 561.653 31.176 562.485 32.072C563.381 32.968 563.829 34.184 563.829 35.72C563.829 37.384 563.381 38.664 562.485 39.56C561.653 40.456 560.437 40.904 558.837 40.904Z" fill="black"/>
<path d="M9.778 126.19H20.656L20.95 126.946H9.4L9.778 126.19ZM30.148 138.496C30.26 138.496 30.316 138.58 30.316 138.748C30.316 138.916 30.26 139 30.148 139C29.644 139 28.832 138.972 27.712 138.916C26.648 138.86 25.864 138.832 25.36 138.832C24.772 138.832 24.002 138.86 23.05 138.916C22.154 138.972 21.482 139 21.034 139C20.922 139 20.866 138.916 20.866 138.748C20.866 138.58 20.922 138.496 21.034 138.496C22.182 138.496 23.008 138.398 23.512 138.202C24.016 137.978 24.268 137.614 24.268 137.11C24.268 136.718 24.114 136.172 23.806 135.472L14.314 115.06L15.112 114.346L7.006 133.834C6.614 134.786 6.418 135.57 6.418 136.186C6.418 136.998 6.754 137.586 7.426 137.95C8.098 138.314 9.148 138.496 10.576 138.496C10.716 138.496 10.786 138.58 10.786 138.748C10.786 138.916 10.716 139 10.576 139C10.072 139 9.344 138.972 8.392 138.916C7.328 138.86 6.404 138.832 5.62 138.832C4.92 138.832 4.094 138.86 3.142 138.916C2.302 138.972 1.616 139 1.084 139C0.944 139 0.874 138.916 0.874 138.748C0.874 138.58 0.944 138.496 1.084 138.496C1.868 138.496 2.526 138.356 3.058 138.076C3.618 137.796 4.136 137.292 4.612 136.564C5.116 135.836 5.648 134.8 6.208 133.456L14.986 112.33C15.042 112.246 15.126 112.204 15.238 112.204C15.378 112.204 15.462 112.246 15.49 112.33L25.234 133.246C25.878 134.674 26.452 135.766 26.956 136.522C27.46 137.25 27.95 137.768 28.426 138.076C28.93 138.356 29.504 138.496 30.148 138.496ZM72.2422 117.832C72.2422 118.952 72.5082 119.918 73.0402 120.73C73.5722 121.542 74.2162 122.228 74.9722 122.788C75.7562 123.32 76.8342 123.992 78.2062 124.804C79.6622 125.672 80.7822 126.4 81.5662 126.988C82.3782 127.548 83.0642 128.276 83.6242 129.172C84.2122 130.068 84.5062 131.146 84.5062 132.406C84.5062 133.722 84.1842 134.926 83.5402 136.018C82.8962 137.082 81.9302 137.936 80.6422 138.58C79.3822 139.196 77.8282 139.504 75.9802 139.504C75.0002 139.504 74.0622 139.392 73.1662 139.168C72.2982 138.972 71.3322 138.608 70.2682 138.076C70.1282 137.992 70.0302 137.894 69.9742 137.782C69.9462 137.67 69.9182 137.502 69.8902 137.278L69.2602 131.818V131.776C69.2602 131.664 69.3302 131.608 69.4702 131.608C69.6102 131.58 69.6942 131.622 69.7222 131.734C70.0022 133.666 70.7442 135.346 71.9482 136.774C73.1522 138.202 74.8042 138.916 76.9042 138.916C78.3882 138.916 79.6342 138.51 80.6422 137.698C81.6782 136.886 82.1962 135.612 82.1962 133.876C82.1962 132.616 81.9162 131.538 81.3562 130.642C80.7962 129.718 80.1102 128.962 79.2982 128.374C78.5142 127.758 77.4362 127.044 76.0642 126.232C74.7202 125.448 73.6562 124.762 72.8722 124.174C72.1162 123.586 71.4582 122.858 70.8982 121.99C70.3662 121.094 70.1002 120.03 70.1002 118.798C70.1002 117.398 70.4502 116.208 71.1502 115.228C71.8782 114.248 72.8162 113.52 73.9642 113.044C75.1122 112.54 76.3442 112.288 77.6602 112.288C79.2002 112.288 80.7962 112.624 82.4482 113.296C82.8682 113.464 83.0782 113.702 83.0782 114.01L83.4562 118.462C83.4562 118.574 83.3722 118.63 83.2042 118.63C83.0642 118.63 82.9802 118.574 82.9522 118.462C82.8402 117.006 82.2942 115.704 81.3142 114.556C80.3342 113.408 78.9342 112.834 77.1142 112.834C75.4342 112.834 74.2022 113.324 73.4182 114.304C72.6342 115.284 72.2422 116.46 72.2422 117.832ZM128.747 117.832C128.747 118.952 129.013 119.918 129.545 120.73C130.077 121.542 130.721 122.228 131.477 122.788C132.261 123.32 133.339 123.992 134.711 124.804C136.167 125.672 137.287 126.4 138.071 126.988C138.883 127.548 139.569 128.276 140.129 129.172C140.717 130.068 141.011 131.146 141.011 132.406C141.011 133.722 140.689 134.926 140.045 136.018C139.401 137.082 138.435 137.936 137.147 138.58C135.887 139.196 134.333 139.504 132.485 139.504C131.505 139.504 130.567 139.392 129.671 139.168C128.803 138.972 127.837 138.608 126.773 138.076C126.633 137.992 126.535 137.894 126.479 137.782C126.451 137.67 126.423 137.502 126.395 137.278L125.765 131.818V131.776C125.765 131.664 125.835 131.608 125.975 131.608C126.115 131.58 126.199 131.622 126.227 131.734C126.507 133.666 127.249 135.346 128.453 136.774C129.657 138.202 131.309 138.916 133.409 138.916C134.893 138.916 136.139 138.51 137.147 137.698C138.183 136.886 138.701 135.612 138.701 133.876C138.701 132.616 138.421 131.538 137.861 130.642C137.301 129.718 136.615 128.962 135.803 128.374C135.019 127.758 133.941 127.044 132.569 126.232C131.225 125.448 130.161 124.762 129.377 124.174C128.621 123.586 127.963 122.858 127.403 121.99C126.871 121.094 126.605 120.03 126.605 118.798C126.605 117.398 126.955 116.208 127.655 115.228C128.383 114.248 129.321 113.52 130.469 113.044C131.617 112.54 132.849 112.288 134.165 112.288C135.705 112.288 137.301 112.624 138.953 113.296C139.373 113.464 139.583 113.702 139.583 114.01L139.961 118.462C139.961 118.574 139.877 118.63 139.709 118.63C139.569 118.63 139.485 118.574 139.457 118.462C139.345 117.006 138.799 115.704 137.819 114.556C136.839 113.408 135.439 112.834 133.619 112.834C131.939 112.834 130.707 113.324 129.923 114.304C129.139 115.284 128.747 116.46 128.747 117.832ZM194.828 139.504C192.224 139.504 189.9 138.902 187.856 137.698C185.84 136.466 184.272 134.814 183.152 132.742C182.06 130.642 181.514 128.36 181.514 125.896C181.514 123.012 182.242 120.548 183.698 118.504C185.154 116.432 187.016 114.878 189.284 113.842C191.58 112.806 193.918 112.288 196.298 112.288C198.958 112.288 201.296 112.918 203.312 114.178C205.328 115.41 206.868 117.048 207.932 119.092C209.024 121.136 209.57 123.306 209.57 125.602C209.57 128.15 208.898 130.488 207.554 132.616C206.21 134.744 204.404 136.424 202.136 137.656C199.896 138.888 197.46 139.504 194.828 139.504ZM196.34 138.664C198.328 138.664 200.12 138.202 201.716 137.278C203.312 136.354 204.572 134.996 205.496 133.204C206.42 131.412 206.882 129.27 206.882 126.778C206.882 124.146 206.364 121.808 205.328 119.764C204.32 117.692 202.878 116.082 201.002 114.934C199.154 113.786 196.998 113.212 194.534 113.212C191.286 113.212 188.752 114.22 186.932 116.236C185.112 118.252 184.202 120.996 184.202 124.468C184.202 127.072 184.706 129.466 185.714 131.65C186.75 133.806 188.192 135.514 190.04 136.774C191.888 138.034 193.988 138.664 196.34 138.664ZM264.826 112.288C266.674 112.288 268.186 112.428 269.362 112.708C270.538 112.96 271.784 113.422 273.1 114.094C273.268 114.206 273.366 114.304 273.394 114.388C273.45 114.444 273.492 114.654 273.52 115.018L274.024 119.806C274.024 119.89 273.94 119.946 273.772 119.974C273.632 119.974 273.548 119.932 273.52 119.848C272.904 117.524 271.882 115.788 270.454 114.64C269.026 113.464 267.15 112.876 264.826 112.876C262.362 112.876 260.192 113.394 258.316 114.43C256.468 115.466 255.026 116.95 253.99 118.882C252.982 120.786 252.478 123.012 252.478 125.56C252.478 127.94 253.038 130.166 254.158 132.238C255.306 134.282 256.832 135.92 258.736 137.152C260.668 138.356 262.726 138.958 264.91 138.958C269.558 138.958 272.526 136.676 273.814 132.112C273.814 132.056 273.884 132.028 274.024 132.028C274.22 132.028 274.318 132.07 274.318 132.154L273.982 136.606C273.954 136.942 273.912 137.152 273.856 137.236C273.8 137.32 273.688 137.418 273.52 137.53C272.064 138.286 270.692 138.804 269.404 139.084C268.144 139.392 266.632 139.546 264.868 139.546C261.956 139.546 259.352 138.972 257.056 137.824C254.788 136.648 253.01 135.01 251.722 132.91C250.434 130.782 249.79 128.346 249.79 125.602C249.79 122.97 250.434 120.646 251.722 118.63C253.01 116.614 254.788 115.06 257.056 113.968C259.352 112.848 261.942 112.288 264.826 112.288ZM320.75 135.598C320.75 136.466 320.834 137.096 321.002 137.488C321.198 137.88 321.548 138.146 322.052 138.286C322.556 138.426 323.368 138.496 324.488 138.496C324.544 138.496 324.572 138.58 324.572 138.748C324.572 138.916 324.544 139 324.488 139C323.648 139 322.99 138.986 322.514 138.958L319.574 138.916L316.76 138.958C316.256 138.986 315.57 139 314.702 139C314.618 139 314.576 138.916 314.576 138.748C314.576 138.58 314.618 138.496 314.702 138.496C315.794 138.496 316.592 138.426 317.096 138.286C317.628 138.146 317.992 137.88 318.188 137.488C318.384 137.068 318.482 136.438 318.482 135.598V116.152C318.482 115.312 318.384 114.696 318.188 114.304C317.992 113.912 317.628 113.646 317.096 113.506C316.592 113.338 315.794 113.254 314.702 113.254C314.618 113.254 314.576 113.17 314.576 113.002C314.576 112.834 314.618 112.75 314.702 112.75L316.76 112.792C317.936 112.848 318.874 112.876 319.574 112.876C320.358 112.876 321.338 112.848 322.514 112.792L324.488 112.75C324.544 112.75 324.572 112.834 324.572 113.002C324.572 113.17 324.544 113.254 324.488 113.254C323.396 113.254 322.584 113.338 322.052 113.506C321.548 113.674 321.198 113.968 321.002 114.388C320.834 114.78 320.75 115.396 320.75 116.236V135.598ZM371.447 126.19H382.325L382.619 126.946H371.069L371.447 126.19ZM391.817 138.496C391.929 138.496 391.985 138.58 391.985 138.748C391.985 138.916 391.929 139 391.817 139C391.313 139 390.501 138.972 389.381 138.916C388.317 138.86 387.533 138.832 387.029 138.832C386.441 138.832 385.671 138.86 384.719 138.916C383.823 138.972 383.151 139 382.703 139C382.591 139 382.535 138.916 382.535 138.748C382.535 138.58 382.591 138.496 382.703 138.496C383.851 138.496 384.677 138.398 385.181 138.202C385.685 137.978 385.937 137.614 385.937 137.11C385.937 136.718 385.783 136.172 385.475 135.472L375.983 115.06L376.781 114.346L368.675 133.834C368.283 134.786 368.087 135.57 368.087 136.186C368.087 136.998 368.423 137.586 369.095 137.95C369.767 138.314 370.817 138.496 372.245 138.496C372.385 138.496 372.455 138.58 372.455 138.748C372.455 138.916 372.385 139 372.245 139C371.741 139 371.013 138.972 370.061 138.916C368.997 138.86 368.073 138.832 367.289 138.832C366.589 138.832 365.763 138.86 364.811 138.916C363.971 138.972 363.285 139 362.753 139C362.613 139 362.543 138.916 362.543 138.748C362.543 138.58 362.613 138.496 362.753 138.496C363.537 138.496 364.195 138.356 364.727 138.076C365.287 137.796 365.805 137.292 366.281 136.564C366.785 135.836 367.317 134.8 367.877 133.456L376.655 112.33C376.711 112.246 376.795 112.204 376.907 112.204C377.047 112.204 377.131 112.246 377.159 112.33L386.903 133.246C387.547 134.674 388.121 135.766 388.625 136.522C389.129 137.25 389.619 137.768 390.095 138.076C390.599 138.356 391.173 138.496 391.817 138.496ZM432.722 113.464C430.958 113.464 429.67 113.884 428.858 114.724C428.046 115.564 427.5 117.062 427.22 119.218C427.22 119.274 427.136 119.302 426.968 119.302C426.8 119.302 426.716 119.274 426.716 119.218C426.828 118.462 426.954 117.258 427.094 115.606C427.234 113.926 427.304 112.666 427.304 111.826C427.304 111.686 427.388 111.616 427.556 111.616C427.724 111.616 427.808 111.686 427.808 111.826C427.808 112.442 428.55 112.75 430.034 112.75C432.442 112.834 435.256 112.876 438.476 112.876C440.128 112.876 441.878 112.848 443.726 112.792L446.582 112.75C447.59 112.75 448.332 112.68 448.808 112.54C449.284 112.4 449.592 112.12 449.732 111.7C449.76 111.588 449.844 111.532 449.984 111.532C450.124 111.532 450.194 111.588 450.194 111.7C450.11 112.484 450.026 113.688 449.942 115.312C449.858 116.908 449.816 118.21 449.816 119.218C449.816 119.274 449.732 119.302 449.564 119.302C449.396 119.302 449.312 119.274 449.312 119.218C449.312 117.734 449.158 116.586 448.85 115.774C448.542 114.962 448.024 114.374 447.296 114.01C446.568 113.646 445.546 113.464 444.23 113.464C442.774 113.464 441.752 113.52 441.164 113.632C440.576 113.716 440.17 113.94 439.946 114.304C439.75 114.668 439.652 115.312 439.652 116.236V135.598C439.652 136.466 439.75 137.096 439.946 137.488C440.142 137.88 440.534 138.146 441.122 138.286C441.71 138.426 442.634 138.496 443.894 138.496C443.95 138.496 443.978 138.58 443.978 138.748C443.978 138.916 443.95 139 443.894 139C442.97 139 442.242 138.986 441.71 138.958L438.476 138.916L435.41 138.958C434.85 138.986 434.08 139 433.1 139C433.044 139 433.016 138.916 433.016 138.748C433.016 138.58 433.044 138.496 433.1 138.496C434.36 138.496 435.284 138.426 435.872 138.286C436.46 138.146 436.852 137.88 437.048 137.488C437.272 137.068 437.384 136.438 437.384 135.598V116.152C437.384 115.228 437.272 114.598 437.048 114.262C436.824 113.898 436.418 113.674 435.83 113.59C435.27 113.506 434.234 113.464 432.722 113.464ZM489.667 139C489.611 139 489.583 138.916 489.583 138.748C489.583 138.58 489.611 138.496 489.667 138.496C490.759 138.496 491.557 138.426 492.061 138.286C492.593 138.146 492.943 137.88 493.111 137.488C493.307 137.068 493.405 136.438 493.405 135.598V116.152C493.405 115.312 493.307 114.696 493.111 114.304C492.943 113.912 492.593 113.646 492.061 113.506C491.557 113.338 490.759 113.254 489.667 113.254C489.611 113.254 489.583 113.17 489.583 113.002C489.583 112.834 489.611 112.75 489.667 112.75H506.299C506.551 112.75 506.677 112.876 506.677 113.128L506.761 118.21C506.761 118.294 506.677 118.336 506.509 118.336C506.369 118.336 506.299 118.294 506.299 118.21C506.299 116.782 505.921 115.648 505.165 114.808C504.409 113.968 503.415 113.548 502.183 113.548H499.285C498.221 113.548 497.437 113.618 496.933 113.758C496.429 113.898 496.079 114.164 495.883 114.556C495.715 114.948 495.631 115.564 495.631 116.404V135.43C495.631 136.242 495.715 136.844 495.883 137.236C496.079 137.6 496.415 137.852 496.891 137.992C497.395 138.132 498.193 138.202 499.285 138.202H503.149C504.269 138.202 505.221 137.712 506.005 136.732C506.817 135.752 507.335 134.464 507.559 132.868C507.559 132.784 507.643 132.756 507.811 132.784C507.979 132.784 508.063 132.826 508.063 132.91C507.811 134.674 507.685 136.494 507.685 138.37C507.685 138.594 507.629 138.762 507.517 138.874C507.433 138.958 507.265 139 507.013 139H489.667ZM504.661 129.13C504.661 127.87 504.395 126.988 503.863 126.484C503.331 125.98 502.393 125.728 501.049 125.728H494.581V124.93H501.175C502.463 124.93 503.359 124.72 503.863 124.3C504.367 123.852 504.619 123.096 504.619 122.032C504.619 121.976 504.703 121.948 504.871 121.948C505.039 121.948 505.123 121.976 505.123 122.032L505.081 125.35C505.081 126.162 505.095 126.764 505.123 127.156L505.165 129.13C505.165 129.186 505.081 129.214 504.913 129.214C504.745 129.214 504.661 129.186 504.661 129.13ZM552.13 117.832C552.13 118.952 552.396 119.918 552.928 120.73C553.46 121.542 554.104 122.228 554.86 122.788C555.644 123.32 556.722 123.992 558.094 124.804C559.55 125.672 560.67 126.4 561.454 126.988C562.266 127.548 562.952 128.276 563.512 129.172C564.1 130.068 564.394 131.146 564.394 132.406C564.394 133.722 564.072 134.926 563.428 136.018C562.784 137.082 561.818 137.936 560.53 138.58C559.27 139.196 557.716 139.504 555.868 139.504C554.888 139.504 553.95 139.392 553.054 139.168C552.186 138.972 551.22 138.608 550.156 138.076C550.016 137.992 549.918 137.894 549.862 137.782C549.834 137.67 549.806 137.502 549.778 137.278L549.148 131.818V131.776C549.148 131.664 549.218 131.608 549.358 131.608C549.498 131.58 549.582 131.622 549.61 131.734C549.89 133.666 550.632 135.346 551.836 136.774C553.04 138.202 554.692 138.916 556.792 138.916C558.276 138.916 559.522 138.51 560.53 137.698C561.566 136.886 562.084 135.612 562.084 133.876C562.084 132.616 561.804 131.538 561.244 130.642C560.684 129.718 559.998 128.962 559.186 128.374C558.402 127.758 557.324 127.044 555.952 126.232C554.608 125.448 553.544 124.762 552.76 124.174C552.004 123.586 551.346 122.858 550.786 121.99C550.254 121.094 549.988 120.03 549.988 118.798C549.988 117.398 550.338 116.208 551.038 115.228C551.766 114.248 552.704 113.52 553.852 113.044C555 112.54 556.232 112.288 557.548 112.288C559.088 112.288 560.684 112.624 562.336 113.296C562.756 113.464 562.966 113.702 562.966 114.01L563.344 118.462C563.344 118.574 563.26 118.63 563.092 118.63C562.952 118.63 562.868 118.574 562.84 118.462C562.728 117.006 562.182 115.704 561.202 114.556C560.222 113.408 558.822 112.834 557.002 112.834C555.322 112.834 554.09 113.324 553.306 114.304C552.522 115.284 552.13 116.46 552.13 117.832Z" fill="black"/>
</svg>
