<svg width="430" height="569" viewBox="0 0 430 569" fill="none" xmlns="http://www.w3.org/2000/svg">
<rect x="46.3" y="45.3014" width="149.4" height="149.4" stroke="black" stroke-width="0.6"/>
<rect x="46.3" y="45.3014" width="149.4" height="149.4" stroke="black" stroke-width="0.6"/>
<rect x="196.3" y="195.301" width="149.4" height="149.4" stroke="black" stroke-width="0.6"/>
<rect x="46.3" y="345.301" width="149.4" height="149.4" stroke="black" stroke-width="0.6"/>
<path d="M93.7109 109.801C93.7109 112.388 93.154 114.587 92.04 116.4C90.9261 118.193 89.2458 119.496 86.999 120.308V120.535C89.3213 121.044 91.1243 122.206 92.4082 124.018C93.7109 125.812 94.3623 128.077 94.3623 130.815C94.3623 134.402 93.4466 137.262 91.6152 139.396C89.8027 141.511 87.3294 142.568 84.1953 142.568C81.0234 142.568 78.418 142.067 76.3789 141.067V138.008C78.7578 139.386 81.3633 140.076 84.1953 140.076C86.4987 140.076 88.2923 139.245 89.5762 137.583C90.86 135.903 91.502 133.609 91.502 130.702C91.502 127.945 90.7562 125.783 89.2646 124.216C87.7731 122.649 85.5641 121.866 82.6377 121.866H80.542V119.26H82.8076C85.2243 119.26 87.1784 118.42 88.6699 116.74C90.1803 115.04 90.9355 112.813 90.9355 110.056C90.9355 107.696 90.3975 105.846 89.3213 104.505C88.264 103.165 86.7725 102.495 84.8467 102.495C83.5439 102.495 82.3734 102.712 81.335 103.146C80.3154 103.58 79.1637 104.392 77.8799 105.581L76.1523 103.769C77.5495 102.41 78.9277 101.447 80.2871 100.88C81.6654 100.295 83.1663 100.002 84.79 100.002C87.5088 100.002 89.6706 100.899 91.2754 102.693C92.8991 104.486 93.7109 106.856 93.7109 109.801ZM117.868 121.243C117.868 128.247 117.104 133.553 115.574 137.159C114.064 140.765 111.798 142.568 108.777 142.568C105.587 142.568 103.274 140.906 101.839 137.583C100.423 134.242 99.7148 128.795 99.7148 121.243C99.7148 107.082 102.736 100.002 108.777 100.002C111.911 100.002 114.205 101.758 115.659 105.27C117.132 108.782 117.868 114.106 117.868 121.243ZM102.604 121.243C102.604 127.473 103.094 132.146 104.076 135.261C105.077 138.358 106.644 139.906 108.777 139.906C112.912 139.906 114.979 133.685 114.979 121.243C114.979 108.857 112.912 102.664 108.777 102.664C106.644 102.664 105.077 104.194 104.076 107.252C103.094 110.311 102.604 114.974 102.604 121.243ZM141.091 121.243C141.091 128.247 140.326 133.553 138.797 137.159C137.286 140.765 135.021 142.568 132 142.568C128.809 142.568 126.496 140.906 125.062 137.583C123.646 134.242 122.938 128.795 122.938 121.243C122.938 107.082 125.958 100.002 132 100.002C135.134 100.002 137.428 101.758 138.882 105.27C140.354 108.782 141.091 114.106 141.091 121.243ZM125.826 121.243C125.826 127.473 126.317 132.146 127.299 135.261C128.299 138.358 129.867 139.906 132 139.906C136.135 139.906 138.202 133.685 138.202 121.243C138.202 108.857 136.135 102.664 132 102.664C129.867 102.664 128.299 104.194 127.299 107.252C126.317 110.311 125.826 114.974 125.826 121.243ZM154.118 122.687H145.339V120.365H154.118V108.074H156.44V120.365H165.191V122.687H156.44V134.921H154.118V122.687Z" fill="black"/>
<path d="M65.208 155.937C65.208 156.364 65.3093 156.732 65.512 157.041C65.7147 157.351 65.96 157.612 66.248 157.825C66.5467 158.028 66.9573 158.284 67.48 158.593C68.0347 158.924 68.4613 159.201 68.76 159.425C69.0693 159.639 69.3307 159.916 69.544 160.257C69.768 160.599 69.88 161.009 69.88 161.489C69.88 161.991 69.7573 162.449 69.512 162.865C69.2667 163.271 68.8987 163.596 68.408 163.841C67.928 164.076 67.336 164.193 66.632 164.193C66.2587 164.193 65.9013 164.151 65.56 164.065C65.2293 163.991 64.8613 163.852 64.456 163.649C64.4027 163.617 64.3653 163.58 64.344 163.537C64.3333 163.495 64.3227 163.431 64.312 163.345L64.072 161.265V161.249C64.072 161.207 64.0987 161.185 64.152 161.185C64.2053 161.175 64.2373 161.191 64.248 161.233C64.3547 161.969 64.6373 162.609 65.096 163.153C65.5547 163.697 66.184 163.969 66.984 163.969C67.5493 163.969 68.024 163.815 68.408 163.505C68.8027 163.196 69 162.711 69 162.049C69 161.569 68.8933 161.159 68.68 160.817C68.4667 160.465 68.2053 160.177 67.896 159.953C67.5973 159.719 67.1867 159.447 66.664 159.137C66.152 158.839 65.7467 158.577 65.448 158.353C65.16 158.129 64.9093 157.852 64.696 157.521C64.4933 157.18 64.392 156.775 64.392 156.305C64.392 155.772 64.5253 155.319 64.792 154.945C65.0693 154.572 65.4267 154.295 65.864 154.113C66.3013 153.921 66.7707 153.825 67.272 153.825C67.8587 153.825 68.4667 153.953 69.096 154.209C69.256 154.273 69.336 154.364 69.336 154.481L69.48 156.177C69.48 156.22 69.448 156.241 69.384 156.241C69.3307 156.241 69.2987 156.22 69.288 156.177C69.2453 155.623 69.0373 155.127 68.664 154.689C68.2907 154.252 67.7573 154.033 67.064 154.033C66.424 154.033 65.9547 154.22 65.656 154.593C65.3573 154.967 65.208 155.415 65.208 155.937ZM73.6456 164.113C73.123 164.113 72.7123 163.948 72.4136 163.617C72.1256 163.287 71.9816 162.801 71.9816 162.161V159.681C71.9816 159.244 71.9443 158.935 71.8696 158.753C71.8056 158.561 71.6883 158.465 71.5176 158.465C71.3576 158.465 71.1656 158.519 70.9416 158.625H70.9096C70.867 158.625 70.835 158.599 70.8136 158.545C70.803 158.492 70.819 158.46 70.8616 158.449L72.5416 157.697L72.6056 157.681C72.627 157.681 72.6536 157.692 72.6856 157.713C72.7176 157.735 72.7336 157.761 72.7336 157.793V161.681C72.7336 162.321 72.8456 162.796 73.0696 163.105C73.2936 163.415 73.6296 163.569 74.0776 163.569C74.515 163.569 74.9523 163.441 75.3896 163.185C75.827 162.919 76.211 162.556 76.5416 162.097L76.6216 162.273C76.1203 162.924 75.6243 163.393 75.1336 163.681C74.6536 163.969 74.1576 164.113 73.6456 164.113ZM76.9896 162.321C76.9896 162.684 77.0323 162.951 77.1176 163.121C77.2136 163.281 77.3683 163.361 77.5816 163.361C77.6883 163.361 77.8163 163.34 77.9656 163.297C78.1256 163.244 78.2963 163.185 78.4776 163.121H78.5096C78.5523 163.121 78.579 163.148 78.5896 163.201C78.611 163.244 78.6003 163.276 78.5576 163.297L76.7656 164.129L76.7016 164.145C76.6056 164.145 76.5043 164.028 76.3976 163.793C76.3016 163.548 76.2536 163.239 76.2536 162.865V159.681C76.2536 159.244 76.2163 158.935 76.1416 158.753C76.0776 158.561 75.955 158.465 75.7736 158.465C75.6136 158.465 75.4216 158.519 75.1976 158.625H75.1656C75.123 158.625 75.0963 158.599 75.0856 158.545C75.075 158.492 75.091 158.46 75.1336 158.449L76.8136 157.697L76.8616 157.681C76.8936 157.681 76.9203 157.692 76.9416 157.713C76.9736 157.735 76.9896 157.761 76.9896 157.793V162.321ZM82.2894 164.193C81.6067 164.193 81.0307 164.044 80.5614 163.745C80.1027 163.436 79.7614 163.041 79.5374 162.561C79.3134 162.081 79.2014 161.575 79.2014 161.041C79.2014 160.359 79.3667 159.767 79.6974 159.265C80.0387 158.753 80.4707 158.364 80.9934 158.097C81.5267 157.82 82.0707 157.681 82.6254 157.681C83.084 157.681 83.5 157.772 83.8734 157.953C84.2574 158.135 84.4494 158.348 84.4494 158.593C84.4494 158.721 84.4067 158.833 84.3214 158.929C84.236 159.015 84.124 159.057 83.9854 159.057C83.74 159.057 83.5267 158.908 83.3454 158.609C83.2067 158.407 83.0414 158.257 82.8494 158.161C82.668 158.055 82.4227 158.001 82.1134 158.001C81.4734 158.001 80.9774 158.236 80.6254 158.705C80.284 159.164 80.1134 159.788 80.1134 160.577C80.1134 161.473 80.3427 162.22 80.8014 162.817C81.26 163.404 81.9427 163.697 82.8494 163.697C83.532 163.697 84.0814 163.511 84.4974 163.137H84.5294C84.5614 163.137 84.588 163.153 84.6094 163.185C84.6414 163.217 84.6414 163.244 84.6094 163.265C84.2467 163.585 83.8787 163.82 83.5054 163.969C83.132 164.119 82.7267 164.193 82.2894 164.193ZM88.7113 164.193C88.0286 164.193 87.4526 164.044 86.9833 163.745C86.5246 163.436 86.1833 163.041 85.9593 162.561C85.7353 162.081 85.6233 161.575 85.6233 161.041C85.6233 160.359 85.7886 159.767 86.1193 159.265C86.4606 158.753 86.8926 158.364 87.4153 158.097C87.9486 157.82 88.4926 157.681 89.0473 157.681C89.5059 157.681 89.9219 157.772 90.2953 157.953C90.6793 158.135 90.8713 158.348 90.8713 158.593C90.8713 158.721 90.8286 158.833 90.7433 158.929C90.6579 159.015 90.5459 159.057 90.4073 159.057C90.1619 159.057 89.9486 158.908 89.7673 158.609C89.6286 158.407 89.4633 158.257 89.2713 158.161C89.0899 158.055 88.8446 158.001 88.5353 158.001C87.8953 158.001 87.3993 158.236 87.0473 158.705C86.7059 159.164 86.5353 159.788 86.5353 160.577C86.5353 161.473 86.7646 162.22 87.2233 162.817C87.6819 163.404 88.3646 163.697 89.2713 163.697C89.9539 163.697 90.5033 163.511 90.9193 163.137H90.9513C90.9833 163.137 91.0099 163.153 91.0313 163.185C91.0633 163.217 91.0633 163.244 91.0313 163.265C90.6686 163.585 90.3006 163.82 89.9273 163.969C89.5539 164.119 89.1486 164.193 88.7113 164.193ZM94.8931 164.193C94.2851 164.193 93.7678 164.049 93.3411 163.761C92.9145 163.473 92.5891 163.1 92.3651 162.641C92.1518 162.172 92.0451 161.665 92.0451 161.121C92.0451 160.492 92.1945 159.916 92.4931 159.393C92.7918 158.86 93.1918 158.444 93.6931 158.145C94.2051 157.836 94.7598 157.681 95.3571 157.681C95.9545 157.681 96.4025 157.847 96.7011 158.177C97.0105 158.497 97.1651 158.94 97.1651 159.505C97.1651 159.655 97.1491 159.761 97.1171 159.825C97.0958 159.879 97.0478 159.905 96.9731 159.905H96.2211C96.2318 159.831 96.2371 159.729 96.2371 159.601C96.2371 159.068 96.1091 158.668 95.8531 158.401C95.6078 158.135 95.2718 158.001 94.8451 158.001C94.2478 158.001 93.7838 158.225 93.4531 158.673C93.1225 159.121 92.9571 159.745 92.9571 160.545C92.9571 161.473 93.1758 162.231 93.6131 162.817C94.0505 163.393 94.6638 163.681 95.4531 163.681C95.7838 163.681 96.0665 163.639 96.3011 163.553C96.5358 163.457 96.7918 163.319 97.0691 163.137H97.0851C97.1171 163.137 97.1438 163.159 97.1651 163.201C97.1971 163.233 97.2025 163.265 97.1811 163.297C96.4771 163.895 95.7145 164.193 94.8931 164.193ZM92.7331 159.729L96.3811 159.665V159.905L92.7491 159.921L92.7331 159.729ZM99.4735 158.849C99.4735 159.244 99.5962 159.553 99.8415 159.777C100.087 159.991 100.46 160.22 100.962 160.465C101.324 160.647 101.612 160.807 101.826 160.945C102.039 161.084 102.22 161.265 102.37 161.489C102.519 161.703 102.594 161.964 102.594 162.273C102.594 162.807 102.391 163.26 101.986 163.633C101.591 163.996 101.047 164.177 100.354 164.177C99.7882 164.177 99.2868 164.012 98.8495 163.681C98.7855 163.639 98.7535 163.575 98.7535 163.489L98.7215 162.337C98.7215 162.305 98.7482 162.289 98.8015 162.289C98.8655 162.279 98.9028 162.289 98.9135 162.321C99.1162 162.855 99.3722 163.249 99.6815 163.505C100.002 163.751 100.38 163.873 100.818 163.873C101.18 163.873 101.458 163.793 101.65 163.633C101.842 163.473 101.938 163.239 101.938 162.929C101.938 162.62 101.868 162.364 101.73 162.161C101.602 161.948 101.436 161.777 101.234 161.649C101.042 161.521 100.775 161.377 100.434 161.217C100.082 161.047 99.7988 160.897 99.5855 160.769C99.3828 160.631 99.2068 160.449 99.0575 160.225C98.9188 160.001 98.8495 159.724 98.8495 159.393C98.8495 158.828 99.0628 158.391 99.4895 158.081C99.9162 157.772 100.418 157.617 100.994 157.617C101.388 157.617 101.767 157.697 102.13 157.857C102.194 157.889 102.231 157.916 102.242 157.937C102.263 157.959 102.274 157.991 102.274 158.033C102.274 158.236 102.268 158.396 102.258 158.513L102.242 159.137C102.242 159.159 102.21 159.169 102.146 159.169C102.082 159.169 102.049 159.159 102.049 159.137C102.049 158.796 101.874 158.513 101.522 158.289C101.17 158.055 100.796 157.937 100.402 157.937C100.114 157.937 99.8842 158.017 99.7135 158.177C99.5535 158.327 99.4735 158.551 99.4735 158.849ZM104.786 158.849C104.786 159.244 104.909 159.553 105.154 159.777C105.399 159.991 105.773 160.22 106.274 160.465C106.637 160.647 106.925 160.807 107.138 160.945C107.351 161.084 107.533 161.265 107.682 161.489C107.831 161.703 107.906 161.964 107.906 162.273C107.906 162.807 107.703 163.26 107.298 163.633C106.903 163.996 106.359 164.177 105.666 164.177C105.101 164.177 104.599 164.012 104.162 163.681C104.098 163.639 104.066 163.575 104.066 163.489L104.034 162.337C104.034 162.305 104.061 162.289 104.114 162.289C104.178 162.279 104.215 162.289 104.226 162.321C104.429 162.855 104.685 163.249 104.994 163.505C105.314 163.751 105.693 163.873 106.13 163.873C106.493 163.873 106.77 163.793 106.962 163.633C107.154 163.473 107.25 163.239 107.25 162.929C107.25 162.62 107.181 162.364 107.042 162.161C106.914 161.948 106.749 161.777 106.546 161.649C106.354 161.521 106.087 161.377 105.746 161.217C105.394 161.047 105.111 160.897 104.898 160.769C104.695 160.631 104.519 160.449 104.37 160.225C104.231 160.001 104.162 159.724 104.162 159.393C104.162 158.828 104.375 158.391 104.802 158.081C105.229 157.772 105.73 157.617 106.306 157.617C106.701 157.617 107.079 157.697 107.442 157.857C107.506 157.889 107.543 157.916 107.554 157.937C107.575 157.959 107.586 157.991 107.586 158.033C107.586 158.236 107.581 158.396 107.57 158.513L107.554 159.137C107.554 159.159 107.522 159.169 107.458 159.169C107.394 159.169 107.362 159.159 107.362 159.137C107.362 158.796 107.186 158.513 106.834 158.289C106.482 158.055 106.109 157.937 105.714 157.937C105.426 157.937 105.197 158.017 105.026 158.177C104.866 158.327 104.786 158.551 104.786 158.849ZM109.184 164.001C109.152 164.001 109.136 163.969 109.136 163.905C109.136 163.841 109.152 163.809 109.184 163.809C109.515 163.809 109.755 163.783 109.904 163.729C110.064 163.665 110.171 163.559 110.224 163.409C110.288 163.26 110.32 163.025 110.32 162.705V159.105C110.32 158.817 110.294 158.62 110.24 158.513C110.198 158.396 110.096 158.321 109.936 158.289C109.787 158.247 109.515 158.225 109.12 158.225C109.088 158.225 109.072 158.193 109.072 158.129C109.072 158.065 109.088 158.033 109.12 158.033C109.579 158.033 109.888 157.985 110.048 157.889C110.208 157.783 110.294 157.591 110.304 157.313C110.358 155.585 110.667 154.332 111.232 153.553C111.808 152.775 112.651 152.385 113.76 152.385C114.294 152.385 114.736 152.471 115.088 152.641C115.44 152.801 115.616 152.988 115.616 153.201C115.616 153.34 115.568 153.452 115.472 153.537C115.376 153.612 115.259 153.649 115.12 153.649C115.014 153.649 114.918 153.628 114.832 153.585C114.747 153.532 114.651 153.436 114.544 153.297C114.363 153.073 114.166 152.908 113.952 152.801C113.75 152.695 113.504 152.641 113.216 152.641C112.566 152.641 112.048 153.004 111.664 153.729C111.28 154.444 111.088 155.527 111.088 156.977V162.705C111.088 163.036 111.126 163.276 111.2 163.425C111.275 163.575 111.419 163.676 111.632 163.729C111.856 163.783 112.214 163.809 112.704 163.809C112.726 163.809 112.736 163.841 112.736 163.905C112.736 163.969 112.726 164.001 112.704 164.001L111.68 163.985C111.467 163.975 111.136 163.969 110.688 163.969L109.808 163.985C109.659 163.996 109.451 164.001 109.184 164.001ZM113.168 158.593C112.784 158.497 112.406 158.433 112.032 158.401C111.67 158.369 111.248 158.353 110.768 158.353V158.017C111.419 158.017 112.235 157.964 113.216 157.857C113.248 157.857 113.275 157.895 113.296 157.969C113.318 158.033 113.328 158.119 113.328 158.225C113.328 158.311 113.312 158.396 113.28 158.481C113.248 158.567 113.211 158.604 113.168 158.593ZM116.411 164.113C115.889 164.113 115.478 163.948 115.179 163.617C114.891 163.287 114.747 162.801 114.747 162.161V159.681C114.747 159.244 114.71 158.935 114.635 158.753C114.571 158.561 114.454 158.465 114.283 158.465C114.123 158.465 113.931 158.519 113.707 158.625H113.675C113.633 158.625 113.601 158.599 113.579 158.545C113.569 158.492 113.585 158.46 113.627 158.449L115.307 157.697L115.371 157.681C115.393 157.681 115.419 157.692 115.451 157.713C115.483 157.735 115.499 157.761 115.499 157.793V161.681C115.499 162.321 115.611 162.796 115.835 163.105C116.059 163.415 116.395 163.569 116.843 163.569C117.281 163.569 117.718 163.441 118.155 163.185C118.593 162.919 118.977 162.556 119.307 162.097L119.387 162.273C118.886 162.924 118.39 163.393 117.899 163.681C117.419 163.969 116.923 164.113 116.411 164.113ZM119.755 162.321C119.755 162.684 119.798 162.951 119.883 163.121C119.979 163.281 120.134 163.361 120.347 163.361C120.454 163.361 120.582 163.34 120.731 163.297C120.891 163.244 121.062 163.185 121.243 163.121H121.275C121.318 163.121 121.345 163.148 121.355 163.201C121.377 163.244 121.366 163.276 121.323 163.297L119.531 164.129L119.467 164.145C119.371 164.145 119.27 164.028 119.163 163.793C119.067 163.548 119.019 163.239 119.019 162.865V159.681C119.019 159.244 118.982 158.935 118.907 158.753C118.843 158.561 118.721 158.465 118.539 158.465C118.379 158.465 118.187 158.519 117.963 158.625H117.931C117.889 158.625 117.862 158.599 117.851 158.545C117.841 158.492 117.857 158.46 117.899 158.449L119.579 157.697L119.627 157.681C119.659 157.681 119.686 157.692 119.707 157.713C119.739 157.735 119.755 157.761 119.755 157.793V162.321ZM122.031 164.001C121.999 164.001 121.983 163.969 121.983 163.905C121.983 163.841 121.999 163.809 122.031 163.809C122.34 163.809 122.564 163.783 122.703 163.729C122.842 163.676 122.938 163.575 122.991 163.425C123.044 163.265 123.071 163.025 123.071 162.705V154.401C123.071 154.007 123.034 153.724 122.959 153.553C122.884 153.383 122.751 153.297 122.559 153.297C122.388 153.297 122.132 153.377 121.791 153.537H121.759C121.716 153.537 121.684 153.511 121.663 153.457C121.652 153.404 121.668 153.372 121.711 153.361L123.679 152.417C123.7 152.407 123.727 152.401 123.759 152.401C123.78 152.401 123.802 152.412 123.823 152.433C123.855 152.455 123.871 152.481 123.871 152.513V162.705C123.871 163.025 123.892 163.26 123.935 163.409C123.988 163.559 124.084 163.665 124.223 163.729C124.372 163.783 124.602 163.809 124.911 163.809C124.943 163.809 124.959 163.841 124.959 163.905C124.959 163.969 124.943 164.001 124.911 164.001C124.676 164.001 124.484 163.996 124.335 163.985L123.471 163.969L122.607 163.985C122.468 163.996 122.276 164.001 122.031 164.001ZM132.195 162.641C132.195 162.983 132.243 163.233 132.339 163.393C132.435 163.543 132.616 163.649 132.883 163.713C133.16 163.777 133.597 163.809 134.195 163.809C134.227 163.809 134.243 163.841 134.243 163.905C134.243 163.969 134.227 164.001 134.195 164.001C133.757 164.001 133.416 163.996 133.171 163.985L131.779 163.969L130.723 163.985C130.531 163.996 130.264 164.001 129.923 164.001C129.901 164.001 129.891 163.969 129.891 163.905C129.891 163.841 129.901 163.809 129.923 163.809C130.339 163.809 130.643 163.783 130.835 163.729C131.037 163.676 131.171 163.575 131.235 163.425C131.309 163.265 131.347 163.025 131.347 162.705V155.297C131.347 154.977 131.309 154.743 131.235 154.593C131.171 154.444 131.037 154.343 130.835 154.289C130.643 154.225 130.339 154.193 129.923 154.193C129.901 154.193 129.891 154.161 129.891 154.097C129.891 154.033 129.901 154.001 129.923 154.001L130.707 154.017C131.155 154.039 131.507 154.049 131.763 154.049C132.019 154.049 132.312 154.033 132.643 154.001C133.475 153.969 133.928 153.953 134.003 153.953C134.941 153.953 135.704 154.172 136.291 154.609C136.877 155.036 137.171 155.692 137.171 156.577C137.171 157.292 136.995 157.895 136.643 158.385C136.291 158.865 135.843 159.223 135.299 159.457C134.765 159.692 134.211 159.809 133.635 159.809C133.315 159.809 133.053 159.783 132.851 159.729C132.819 159.729 132.803 159.703 132.803 159.649C132.803 159.617 132.808 159.585 132.819 159.553C132.84 159.521 132.861 159.511 132.883 159.521C133.053 159.564 133.245 159.585 133.459 159.585C134.216 159.585 134.856 159.356 135.379 158.897C135.912 158.439 136.179 157.772 136.179 156.897C136.179 156.332 136.067 155.847 135.843 155.441C135.619 155.025 135.309 154.711 134.915 154.497C134.531 154.273 134.104 154.161 133.635 154.161C133.197 154.161 132.888 154.183 132.707 154.225C132.525 154.268 132.392 154.369 132.307 154.529C132.232 154.679 132.195 154.945 132.195 155.329V162.641ZM140.019 159.505C140.595 158.78 141.027 158.295 141.315 158.049C141.614 157.804 141.897 157.681 142.163 157.681C142.398 157.681 142.617 157.745 142.819 157.873C143.033 157.991 143.139 158.129 143.139 158.289C143.139 158.396 143.097 158.492 143.011 158.577C142.937 158.663 142.825 158.705 142.675 158.705C142.569 158.705 142.473 158.679 142.387 158.625C142.302 158.561 142.249 158.524 142.227 158.513C142.025 158.353 141.822 158.273 141.619 158.273C141.459 158.273 141.278 158.359 141.075 158.529C140.883 158.7 140.553 159.079 140.083 159.665L140.019 159.505ZM138.595 164.001C138.563 164.001 138.547 163.969 138.547 163.905C138.547 163.841 138.563 163.809 138.595 163.809C138.905 163.809 139.129 163.783 139.267 163.729C139.406 163.676 139.502 163.575 139.555 163.425C139.609 163.265 139.635 163.025 139.635 162.705V159.505C139.635 159.132 139.593 158.865 139.507 158.705C139.422 158.545 139.273 158.465 139.059 158.465C138.889 158.465 138.59 158.545 138.163 158.705H138.131C138.089 158.705 138.057 158.684 138.035 158.641C138.025 158.588 138.041 158.551 138.083 158.529L139.859 157.697C139.881 157.687 139.907 157.681 139.939 157.681C140.025 157.681 140.121 157.804 140.227 158.049C140.334 158.284 140.387 158.588 140.387 158.961V162.705C140.387 163.025 140.425 163.265 140.499 163.425C140.574 163.575 140.718 163.676 140.931 163.729C141.155 163.783 141.507 163.809 141.987 163.809C142.019 163.809 142.035 163.841 142.035 163.905C142.035 163.969 142.019 164.001 141.987 164.001C141.646 164.001 141.374 163.996 141.171 163.985L140.019 163.969L139.171 163.985C139.033 163.996 138.841 164.001 138.595 164.001ZM147.118 164.209C146.51 164.209 145.971 164.06 145.502 163.761C145.032 163.452 144.67 163.041 144.414 162.529C144.158 162.007 144.03 161.441 144.03 160.833C144.03 160.14 144.195 159.553 144.526 159.073C144.867 158.583 145.294 158.22 145.806 157.985C146.328 157.74 146.862 157.617 147.406 157.617C148.024 157.617 148.563 157.772 149.022 158.081C149.491 158.391 149.848 158.801 150.094 159.313C150.35 159.815 150.478 160.348 150.478 160.913C150.478 161.575 150.323 162.156 150.014 162.657C149.715 163.159 149.31 163.543 148.798 163.809C148.286 164.076 147.726 164.209 147.118 164.209ZM147.566 163.921C148.184 163.921 148.67 163.713 149.022 163.297C149.374 162.881 149.55 162.225 149.55 161.329C149.55 160.689 149.438 160.113 149.214 159.601C148.99 159.079 148.675 158.668 148.27 158.369C147.864 158.071 147.4 157.921 146.878 157.921C146.27 157.921 145.795 158.135 145.454 158.561C145.112 158.977 144.942 159.58 144.942 160.369C144.942 161.009 145.054 161.601 145.278 162.145C145.502 162.679 145.811 163.111 146.206 163.441C146.6 163.761 147.054 163.921 147.566 163.921ZM153.639 157.793C153.639 157.857 153.633 158.071 153.623 158.433C153.612 158.785 153.607 159.196 153.607 159.665V164.769C153.607 165.495 153.543 166.087 153.414 166.545C153.287 167.015 153.068 167.404 152.759 167.713C152.46 168.023 152.044 168.289 151.511 168.513C151.489 168.524 151.463 168.497 151.431 168.433C151.409 168.38 151.409 168.348 151.431 168.337C151.953 168.113 152.321 167.756 152.535 167.265C152.748 166.775 152.855 166.065 152.855 165.137V159.681C152.855 159.287 152.817 159.004 152.743 158.833C152.668 158.663 152.535 158.577 152.343 158.577C152.14 158.577 151.884 158.657 151.575 158.817H151.559C151.505 158.817 151.468 158.791 151.447 158.737C151.436 158.684 151.452 158.647 151.495 158.625L153.479 157.697L153.527 157.681C153.601 157.681 153.639 157.719 153.639 157.793ZM153.095 155.745C152.892 155.745 152.732 155.692 152.615 155.585C152.508 155.479 152.455 155.329 152.455 155.137C152.455 154.945 152.508 154.796 152.615 154.689C152.732 154.583 152.892 154.529 153.095 154.529C153.287 154.529 153.436 154.583 153.543 154.689C153.649 154.796 153.703 154.945 153.703 155.137C153.703 155.329 153.649 155.479 153.543 155.585C153.436 155.692 153.287 155.745 153.095 155.745ZM158.581 164.193C157.973 164.193 157.455 164.049 157.029 163.761C156.602 163.473 156.277 163.1 156.053 162.641C155.839 162.172 155.733 161.665 155.733 161.121C155.733 160.492 155.882 159.916 156.181 159.393C156.479 158.86 156.879 158.444 157.381 158.145C157.893 157.836 158.447 157.681 159.045 157.681C159.642 157.681 160.09 157.847 160.389 158.177C160.698 158.497 160.853 158.94 160.853 159.505C160.853 159.655 160.837 159.761 160.805 159.825C160.783 159.879 160.735 159.905 160.661 159.905H159.909C159.919 159.831 159.925 159.729 159.925 159.601C159.925 159.068 159.797 158.668 159.541 158.401C159.295 158.135 158.959 158.001 158.533 158.001C157.935 158.001 157.471 158.225 157.141 158.673C156.81 159.121 156.645 159.745 156.645 160.545C156.645 161.473 156.863 162.231 157.301 162.817C157.738 163.393 158.351 163.681 159.141 163.681C159.471 163.681 159.754 163.639 159.989 163.553C160.223 163.457 160.479 163.319 160.757 163.137H160.773C160.805 163.137 160.831 163.159 160.853 163.201C160.885 163.233 160.89 163.265 160.869 163.297C160.165 163.895 159.402 164.193 158.581 164.193ZM156.421 159.729L160.069 159.665V159.905L156.437 159.921L156.421 159.729ZM165.211 164.193C164.529 164.193 163.953 164.044 163.483 163.745C163.025 163.436 162.683 163.041 162.459 162.561C162.235 162.081 162.123 161.575 162.123 161.041C162.123 160.359 162.289 159.767 162.619 159.265C162.961 158.753 163.393 158.364 163.915 158.097C164.449 157.82 164.993 157.681 165.547 157.681C166.006 157.681 166.422 157.772 166.795 157.953C167.179 158.135 167.371 158.348 167.371 158.593C167.371 158.721 167.329 158.833 167.243 158.929C167.158 159.015 167.046 159.057 166.907 159.057C166.662 159.057 166.449 158.908 166.267 158.609C166.129 158.407 165.963 158.257 165.771 158.161C165.59 158.055 165.345 158.001 165.035 158.001C164.395 158.001 163.899 158.236 163.547 158.705C163.206 159.164 163.035 159.788 163.035 160.577C163.035 161.473 163.265 162.22 163.723 162.817C164.182 163.404 164.865 163.697 165.771 163.697C166.454 163.697 167.003 163.511 167.419 163.137H167.451C167.483 163.137 167.51 163.153 167.531 163.185C167.563 163.217 167.563 163.244 167.531 163.265C167.169 163.585 166.801 163.82 166.427 163.969C166.054 164.119 165.649 164.193 165.211 164.193ZM171.071 164.193C170.634 164.193 170.276 164.097 169.999 163.905C169.722 163.703 169.583 163.372 169.583 162.913V159.105C169.583 158.817 169.562 158.62 169.519 158.513C169.487 158.396 169.418 158.321 169.311 158.289C169.204 158.247 169.018 158.225 168.751 158.225C168.719 158.225 168.703 158.193 168.703 158.129C168.703 158.065 168.719 158.033 168.751 158.033C169.156 158.033 169.482 157.921 169.727 157.697C169.983 157.473 170.111 157.191 170.111 156.849C170.111 156.817 170.154 156.801 170.239 156.801C170.314 156.801 170.351 156.817 170.351 156.849V162.369C170.351 163.255 170.783 163.697 171.647 163.697C172.138 163.697 172.57 163.553 172.943 163.265L172.975 163.249C173.007 163.249 173.034 163.276 173.055 163.329C173.076 163.372 173.071 163.404 173.039 163.425C172.644 163.703 172.298 163.9 171.999 164.017C171.7 164.135 171.391 164.193 171.071 164.193ZM172.559 158.593C172.175 158.497 171.796 158.433 171.423 158.401C171.06 158.369 170.639 158.353 170.159 158.353V158.017C170.81 158.017 171.626 157.964 172.607 157.857C172.639 157.857 172.666 157.895 172.687 157.969C172.708 158.033 172.719 158.119 172.719 158.225C172.719 158.311 172.703 158.396 172.671 158.481C172.639 158.567 172.602 158.604 172.559 158.593ZM175.005 158.849C175.005 159.244 175.127 159.553 175.373 159.777C175.618 159.991 175.991 160.22 176.493 160.465C176.855 160.647 177.143 160.807 177.357 160.945C177.57 161.084 177.751 161.265 177.901 161.489C178.05 161.703 178.125 161.964 178.125 162.273C178.125 162.807 177.922 163.26 177.517 163.633C177.122 163.996 176.578 164.177 175.885 164.177C175.319 164.177 174.818 164.012 174.381 163.681C174.317 163.639 174.285 163.575 174.285 163.489L174.253 162.337C174.253 162.305 174.279 162.289 174.333 162.289C174.397 162.279 174.434 162.289 174.445 162.321C174.647 162.855 174.903 163.249 175.213 163.505C175.533 163.751 175.911 163.873 176.349 163.873C176.711 163.873 176.989 163.793 177.181 163.633C177.373 163.473 177.469 163.239 177.469 162.929C177.469 162.62 177.399 162.364 177.261 162.161C177.133 161.948 176.967 161.777 176.765 161.649C176.573 161.521 176.306 161.377 175.965 161.217C175.613 161.047 175.33 160.897 175.117 160.769C174.914 160.631 174.738 160.449 174.589 160.225C174.45 160.001 174.381 159.724 174.381 159.393C174.381 158.828 174.594 158.391 175.021 158.081C175.447 157.772 175.949 157.617 176.525 157.617C176.919 157.617 177.298 157.697 177.661 157.857C177.725 157.889 177.762 157.916 177.773 157.937C177.794 157.959 177.805 157.991 177.805 158.033C177.805 158.236 177.799 158.396 177.789 158.513L177.773 159.137C177.773 159.159 177.741 159.169 177.677 159.169C177.613 159.169 177.581 159.159 177.581 159.137C177.581 158.796 177.405 158.513 177.053 158.289C176.701 158.055 176.327 157.937 175.933 157.937C175.645 157.937 175.415 158.017 175.245 158.177C175.085 158.327 175.005 158.551 175.005 158.849Z" fill="black"/>
<path d="M256.646 279.001H238.096V276.792L246.45 264.162C249.018 260.253 250.736 257.119 251.604 254.759C252.492 252.399 252.936 249.765 252.936 246.858C252.936 244.63 252.36 242.855 251.208 241.534C250.056 240.212 248.489 239.551 246.507 239.551C245.204 239.551 244.062 239.749 243.08 240.146C242.117 240.524 241.145 241.099 240.163 241.873L238.662 239.749C239.984 238.749 241.249 238.041 242.457 237.625C243.684 237.21 245.091 237.002 246.677 237.002C249.528 237.002 251.746 237.89 253.332 239.664C254.918 241.439 255.711 243.837 255.711 246.858C255.711 248.935 255.475 250.889 255.003 252.72C254.55 254.552 253.898 256.345 253.049 258.101C252.218 259.857 250.83 262.141 248.886 264.955L241.268 276.226V276.453H256.646V279.001ZM279.868 258.243C279.868 265.247 279.104 270.553 277.574 274.159C276.064 277.765 273.798 279.568 270.777 279.568C267.587 279.568 265.274 277.906 263.839 274.583C262.423 271.242 261.715 265.795 261.715 258.243C261.715 244.082 264.736 237.002 270.777 237.002C273.911 237.002 276.205 238.758 277.659 242.27C279.132 245.782 279.868 251.106 279.868 258.243ZM264.604 258.243C264.604 264.473 265.094 269.146 266.076 272.261C267.077 275.358 268.644 276.906 270.777 276.906C274.912 276.906 276.979 270.685 276.979 258.243C276.979 245.857 274.912 239.664 270.777 239.664C268.644 239.664 267.077 241.194 266.076 244.252C265.094 247.311 264.604 251.974 264.604 258.243ZM292.896 259.687H284.116V257.365H292.896V245.074H295.218V257.365H303.969V259.687H295.218V271.921H292.896V259.687Z" fill="black"/>
<path d="M237.644 300.193C236.481 300.193 235.468 299.959 234.604 299.489C233.751 299.009 233.095 298.369 232.636 297.569C232.177 296.759 231.948 295.873 231.948 294.913C231.948 293.879 232.204 292.977 232.716 292.209C233.239 291.441 233.948 290.855 234.844 290.449C235.751 290.033 236.764 289.825 237.884 289.825C238.471 289.825 239.009 289.884 239.5 290.001C239.991 290.119 240.407 290.284 240.748 290.497C240.823 290.54 240.865 290.577 240.876 290.609C240.887 290.641 240.897 290.721 240.908 290.849L241.1 292.641C241.1 292.673 241.068 292.695 241.004 292.705C240.951 292.716 240.919 292.705 240.908 292.673C240.673 291.788 240.3 291.132 239.788 290.705C239.287 290.279 238.577 290.065 237.66 290.065C236.775 290.065 235.98 290.257 235.276 290.641C234.572 291.015 234.017 291.553 233.612 292.257C233.207 292.951 233.004 293.767 233.004 294.705C233.004 295.591 233.185 296.433 233.548 297.233C233.921 298.033 234.487 298.689 235.244 299.201C236.012 299.713 236.956 299.969 238.076 299.969C238.865 299.969 239.42 299.82 239.74 299.521C240.071 299.212 240.236 298.705 240.236 298.001C240.236 297.447 240.199 297.063 240.124 296.849C240.049 296.625 239.889 296.476 239.644 296.401C239.399 296.327 238.972 296.289 238.364 296.289C238.3 296.289 238.268 296.247 238.268 296.161C238.268 296.129 238.273 296.103 238.284 296.081C238.305 296.049 238.327 296.033 238.348 296.033C239.169 296.087 239.831 296.113 240.332 296.113C240.812 296.113 241.324 296.097 241.868 296.065C241.889 296.065 241.905 296.081 241.916 296.113C241.937 296.135 241.948 296.156 241.948 296.177C241.948 296.252 241.921 296.289 241.868 296.289C241.591 296.279 241.393 296.316 241.276 296.401C241.159 296.476 241.084 296.636 241.052 296.881C241.02 297.127 241.004 297.553 241.004 298.161C241.004 298.641 241.02 298.983 241.052 299.185C241.095 299.388 241.116 299.516 241.116 299.569C241.116 299.633 241.105 299.676 241.084 299.697C241.063 299.719 241.015 299.74 240.94 299.761C239.649 300.049 238.551 300.193 237.644 300.193ZM246.188 300.209C245.58 300.209 245.041 300.06 244.572 299.761C244.102 299.452 243.74 299.041 243.484 298.529C243.228 298.007 243.1 297.441 243.1 296.833C243.1 296.14 243.265 295.553 243.596 295.073C243.937 294.583 244.364 294.22 244.876 293.985C245.398 293.74 245.932 293.617 246.476 293.617C247.094 293.617 247.633 293.772 248.092 294.081C248.561 294.391 248.918 294.801 249.164 295.313C249.42 295.815 249.548 296.348 249.548 296.913C249.548 297.575 249.393 298.156 249.084 298.657C248.785 299.159 248.38 299.543 247.868 299.809C247.356 300.076 246.796 300.209 246.188 300.209ZM246.636 299.921C247.254 299.921 247.74 299.713 248.092 299.297C248.444 298.881 248.62 298.225 248.62 297.329C248.62 296.689 248.508 296.113 248.284 295.601C248.06 295.079 247.745 294.668 247.34 294.369C246.934 294.071 246.47 293.921 245.948 293.921C245.34 293.921 244.865 294.135 244.524 294.561C244.182 294.977 244.012 295.58 244.012 296.369C244.012 297.009 244.124 297.601 244.348 298.145C244.572 298.679 244.881 299.111 245.276 299.441C245.67 299.761 246.124 299.921 246.636 299.921ZM256.933 293.825C256.954 293.825 256.965 293.857 256.965 293.921C256.965 293.985 256.954 294.017 256.933 294.017C256.666 294.017 256.447 294.097 256.277 294.257C256.106 294.407 255.935 294.695 255.765 295.121L253.765 299.985C253.754 300.028 253.695 300.049 253.589 300.049C253.482 300.049 253.423 300.028 253.413 299.985L251.221 295.153C251.007 294.684 250.831 294.38 250.693 294.241C250.565 294.092 250.399 294.017 250.197 294.017C250.165 294.017 250.149 293.985 250.149 293.921C250.149 293.857 250.165 293.825 250.197 293.825C250.41 293.825 250.575 293.831 250.693 293.841L251.173 293.857L252.181 293.841C252.33 293.831 252.533 293.825 252.789 293.825C252.821 293.825 252.837 293.857 252.837 293.921C252.837 293.985 252.821 294.017 252.789 294.017C252.138 294.017 251.813 294.145 251.813 294.401C251.813 294.476 251.834 294.556 251.877 294.641L253.957 299.185L253.589 299.649L255.493 295.025C255.557 294.844 255.589 294.7 255.589 294.593C255.589 294.391 255.482 294.247 255.269 294.161C255.066 294.065 254.73 294.017 254.261 294.017C254.239 294.017 254.229 293.985 254.229 293.921C254.229 293.857 254.239 293.825 254.261 293.825C254.549 293.825 254.767 293.831 254.917 293.841L255.877 293.857L256.437 293.841C256.543 293.831 256.709 293.825 256.933 293.825ZM260.495 300.193C259.887 300.193 259.369 300.049 258.943 299.761C258.516 299.473 258.191 299.1 257.967 298.641C257.753 298.172 257.647 297.665 257.647 297.121C257.647 296.492 257.796 295.916 258.095 295.393C258.393 294.86 258.793 294.444 259.295 294.145C259.807 293.836 260.361 293.681 260.959 293.681C261.556 293.681 262.004 293.847 262.303 294.177C262.612 294.497 262.767 294.94 262.767 295.505C262.767 295.655 262.751 295.761 262.719 295.825C262.697 295.879 262.649 295.905 262.575 295.905H261.823C261.833 295.831 261.839 295.729 261.839 295.601C261.839 295.068 261.711 294.668 261.455 294.401C261.209 294.135 260.873 294.001 260.447 294.001C259.849 294.001 259.385 294.225 259.055 294.673C258.724 295.121 258.559 295.745 258.559 296.545C258.559 297.473 258.777 298.231 259.215 298.817C259.652 299.393 260.265 299.681 261.055 299.681C261.385 299.681 261.668 299.639 261.903 299.553C262.137 299.457 262.393 299.319 262.671 299.137H262.687C262.719 299.137 262.745 299.159 262.767 299.201C262.799 299.233 262.804 299.265 262.783 299.297C262.079 299.895 261.316 300.193 260.495 300.193ZM258.335 295.729L261.983 295.665V295.905L258.351 295.921L258.335 295.729ZM265.699 295.505C266.275 294.78 266.707 294.295 266.995 294.049C267.294 293.804 267.576 293.681 267.843 293.681C268.078 293.681 268.296 293.745 268.499 293.873C268.712 293.991 268.819 294.129 268.819 294.289C268.819 294.396 268.776 294.492 268.691 294.577C268.616 294.663 268.504 294.705 268.355 294.705C268.248 294.705 268.152 294.679 268.067 294.625C267.982 294.561 267.928 294.524 267.907 294.513C267.704 294.353 267.502 294.273 267.299 294.273C267.139 294.273 266.958 294.359 266.755 294.529C266.563 294.7 266.232 295.079 265.763 295.665L265.699 295.505ZM264.275 300.001C264.243 300.001 264.227 299.969 264.227 299.905C264.227 299.841 264.243 299.809 264.275 299.809C264.584 299.809 264.808 299.783 264.947 299.729C265.086 299.676 265.182 299.575 265.235 299.425C265.288 299.265 265.315 299.025 265.315 298.705V295.505C265.315 295.132 265.272 294.865 265.187 294.705C265.102 294.545 264.952 294.465 264.739 294.465C264.568 294.465 264.27 294.545 263.843 294.705H263.811C263.768 294.705 263.736 294.684 263.715 294.641C263.704 294.588 263.72 294.551 263.763 294.529L265.539 293.697C265.56 293.687 265.587 293.681 265.619 293.681C265.704 293.681 265.8 293.804 265.907 294.049C266.014 294.284 266.067 294.588 266.067 294.961V298.705C266.067 299.025 266.104 299.265 266.179 299.425C266.254 299.575 266.398 299.676 266.611 299.729C266.835 299.783 267.187 299.809 267.667 299.809C267.699 299.809 267.715 299.841 267.715 299.905C267.715 299.969 267.699 300.001 267.667 300.001C267.326 300.001 267.054 299.996 266.851 299.985L265.699 299.969L264.851 299.985C264.712 299.996 264.52 300.001 264.275 300.001ZM274.345 300.001C274.313 300.001 274.297 299.969 274.297 299.905C274.297 299.841 274.313 299.809 274.345 299.809C274.654 299.809 274.878 299.783 275.017 299.729C275.155 299.676 275.251 299.575 275.305 299.425C275.358 299.265 275.385 299.025 275.385 298.705V296.033C275.385 295.383 275.262 294.908 275.017 294.609C274.771 294.311 274.387 294.161 273.865 294.161C273.459 294.161 273.043 294.3 272.617 294.577C272.201 294.844 271.838 295.207 271.529 295.665L271.465 295.473C271.955 294.823 272.43 294.353 272.889 294.065C273.347 293.767 273.817 293.617 274.297 293.617C274.894 293.617 275.347 293.777 275.657 294.097C275.977 294.417 276.137 294.903 276.137 295.553V298.705C276.137 299.025 276.158 299.265 276.201 299.425C276.254 299.575 276.35 299.676 276.489 299.729C276.638 299.783 276.867 299.809 277.177 299.809C277.209 299.809 277.225 299.841 277.225 299.905C277.225 299.969 277.209 300.001 277.177 300.001C276.931 300.001 276.739 299.996 276.601 299.985L275.769 299.969L274.921 299.985C274.782 299.996 274.59 300.001 274.345 300.001ZM270.041 300.001C270.009 300.001 269.993 299.969 269.993 299.905C269.993 299.841 270.009 299.809 270.041 299.809C270.35 299.809 270.574 299.783 270.713 299.729C270.851 299.676 270.947 299.575 271.001 299.425C271.054 299.265 271.081 299.025 271.081 298.705V295.505C271.081 295.132 271.038 294.865 270.953 294.705C270.867 294.545 270.718 294.465 270.505 294.465C270.334 294.465 270.035 294.545 269.609 294.705H269.577C269.534 294.705 269.502 294.684 269.481 294.641C269.47 294.588 269.486 294.551 269.529 294.529L271.305 293.697C271.326 293.687 271.353 293.681 271.385 293.681C271.47 293.681 271.566 293.804 271.673 294.049C271.779 294.284 271.833 294.588 271.833 294.961V298.705C271.833 299.025 271.854 299.265 271.897 299.425C271.95 299.575 272.046 299.676 272.185 299.729C272.334 299.783 272.563 299.809 272.873 299.809C272.905 299.809 272.921 299.841 272.921 299.905C272.921 299.969 272.905 300.001 272.873 300.001C272.627 300.001 272.435 299.996 272.297 299.985L271.465 299.969L270.617 299.985C270.478 299.996 270.286 300.001 270.041 300.001ZM286.499 300.001C286.478 300.001 286.467 299.969 286.467 299.905C286.467 299.841 286.478 299.809 286.499 299.809C286.808 299.809 287.032 299.783 287.171 299.729C287.32 299.676 287.422 299.575 287.475 299.425C287.528 299.265 287.555 299.025 287.555 298.705V296.097C287.555 295.447 287.438 294.967 287.203 294.657C286.979 294.348 286.622 294.193 286.131 294.193C285.747 294.193 285.352 294.332 284.947 294.609C284.542 294.876 284.184 295.239 283.875 295.697L283.811 295.505C284.291 294.855 284.75 294.385 285.187 294.097C285.624 293.809 286.083 293.665 286.563 293.665C287.128 293.665 287.56 293.825 287.859 294.145C288.158 294.465 288.307 294.951 288.307 295.601V298.705C288.307 299.025 288.328 299.265 288.371 299.425C288.424 299.575 288.52 299.676 288.659 299.729C288.808 299.783 289.038 299.809 289.347 299.809C289.379 299.809 289.395 299.841 289.395 299.905C289.395 299.969 289.379 300.001 289.347 300.001C289.102 300.001 288.91 299.996 288.771 299.985L287.923 299.969L287.091 299.985C286.942 299.996 286.744 300.001 286.499 300.001ZM282.387 300.001C282.355 300.001 282.339 299.969 282.339 299.905C282.339 299.841 282.355 299.809 282.387 299.809C282.696 299.809 282.92 299.783 283.059 299.729C283.198 299.676 283.294 299.575 283.347 299.425C283.4 299.265 283.427 299.025 283.427 298.705V296.097C283.427 295.447 283.31 294.967 283.075 294.657C282.851 294.348 282.499 294.193 282.019 294.193C281.624 294.193 281.224 294.332 280.819 294.609C280.424 294.876 280.072 295.239 279.763 295.697L279.699 295.505C280.168 294.855 280.622 294.385 281.059 294.097C281.507 293.809 281.966 293.665 282.435 293.665C283 293.665 283.432 293.825 283.731 294.145C284.03 294.465 284.179 294.951 284.179 295.601V298.705C284.179 299.025 284.206 299.265 284.259 299.425C284.312 299.575 284.408 299.676 284.547 299.729C284.696 299.783 284.926 299.809 285.235 299.809C285.256 299.809 285.267 299.841 285.267 299.905C285.267 299.969 285.256 300.001 285.235 300.001C284.99 300.001 284.792 299.996 284.643 299.985L283.811 299.969L282.963 299.985C282.824 299.996 282.632 300.001 282.387 300.001ZM278.275 300.001C278.243 300.001 278.227 299.969 278.227 299.905C278.227 299.841 278.243 299.809 278.275 299.809C278.584 299.809 278.808 299.783 278.947 299.729C279.086 299.676 279.182 299.575 279.235 299.425C279.288 299.265 279.315 299.025 279.315 298.705V295.505C279.315 295.132 279.272 294.865 279.187 294.705C279.102 294.545 278.952 294.465 278.739 294.465C278.568 294.465 278.27 294.545 277.843 294.705H277.811C277.768 294.705 277.736 294.684 277.715 294.641C277.704 294.588 277.72 294.551 277.763 294.529L279.539 293.697C279.56 293.687 279.587 293.681 279.619 293.681C279.704 293.681 279.8 293.804 279.907 294.049C280.014 294.284 280.067 294.588 280.067 294.961V298.705C280.067 299.025 280.088 299.265 280.131 299.425C280.184 299.575 280.28 299.676 280.419 299.729C280.568 299.783 280.798 299.809 281.107 299.809C281.139 299.809 281.155 299.841 281.155 299.905C281.155 299.969 281.139 300.001 281.107 300.001C280.862 300.001 280.67 299.996 280.531 299.985L279.699 299.969L278.851 299.985C278.712 299.996 278.52 300.001 278.275 300.001ZM293.135 300.193C292.527 300.193 292.01 300.049 291.583 299.761C291.157 299.473 290.831 299.1 290.607 298.641C290.394 298.172 290.287 297.665 290.287 297.121C290.287 296.492 290.437 295.916 290.735 295.393C291.034 294.86 291.434 294.444 291.935 294.145C292.447 293.836 293.002 293.681 293.599 293.681C294.197 293.681 294.645 293.847 294.943 294.177C295.253 294.497 295.407 294.94 295.407 295.505C295.407 295.655 295.391 295.761 295.359 295.825C295.338 295.879 295.29 295.905 295.215 295.905H294.463C294.474 295.831 294.479 295.729 294.479 295.601C294.479 295.068 294.351 294.668 294.095 294.401C293.85 294.135 293.514 294.001 293.087 294.001C292.49 294.001 292.026 294.225 291.695 294.673C291.365 295.121 291.199 295.745 291.199 296.545C291.199 297.473 291.418 298.231 291.855 298.817C292.293 299.393 292.906 299.681 293.695 299.681C294.026 299.681 294.309 299.639 294.543 299.553C294.778 299.457 295.034 299.319 295.311 299.137H295.327C295.359 299.137 295.386 299.159 295.407 299.201C295.439 299.233 295.445 299.265 295.423 299.297C294.719 299.895 293.957 300.193 293.135 300.193ZM290.975 295.729L294.623 295.665V295.905L290.991 295.921L290.975 295.729ZM301.22 300.001C301.188 300.001 301.172 299.969 301.172 299.905C301.172 299.841 301.188 299.809 301.22 299.809C301.529 299.809 301.753 299.783 301.892 299.729C302.03 299.676 302.126 299.575 302.18 299.425C302.233 299.265 302.26 299.025 302.26 298.705V296.033C302.26 295.383 302.137 294.908 301.892 294.609C301.646 294.311 301.262 294.161 300.74 294.161C300.334 294.161 299.918 294.3 299.492 294.577C299.076 294.844 298.713 295.207 298.404 295.665L298.34 295.473C298.83 294.823 299.305 294.353 299.764 294.065C300.222 293.767 300.692 293.617 301.172 293.617C301.769 293.617 302.222 293.777 302.532 294.097C302.852 294.417 303.012 294.903 303.012 295.553V298.705C303.012 299.025 303.033 299.265 303.076 299.425C303.129 299.575 303.225 299.676 303.364 299.729C303.513 299.783 303.742 299.809 304.052 299.809C304.084 299.809 304.1 299.841 304.1 299.905C304.1 299.969 304.084 300.001 304.052 300.001C303.806 300.001 303.614 299.996 303.476 299.985L302.644 299.969L301.796 299.985C301.657 299.996 301.465 300.001 301.22 300.001ZM296.916 300.001C296.884 300.001 296.868 299.969 296.868 299.905C296.868 299.841 296.884 299.809 296.916 299.809C297.225 299.809 297.449 299.783 297.588 299.729C297.726 299.676 297.822 299.575 297.876 299.425C297.929 299.265 297.956 299.025 297.956 298.705V295.505C297.956 295.132 297.913 294.865 297.828 294.705C297.742 294.545 297.593 294.465 297.38 294.465C297.209 294.465 296.91 294.545 296.484 294.705H296.452C296.409 294.705 296.377 294.684 296.356 294.641C296.345 294.588 296.361 294.551 296.404 294.529L298.18 293.697C298.201 293.687 298.228 293.681 298.26 293.681C298.345 293.681 298.441 293.804 298.548 294.049C298.654 294.284 298.708 294.588 298.708 294.961V298.705C298.708 299.025 298.729 299.265 298.772 299.425C298.825 299.575 298.921 299.676 299.06 299.729C299.209 299.783 299.438 299.809 299.748 299.809C299.78 299.809 299.796 299.841 299.796 299.905C299.796 299.969 299.78 300.001 299.748 300.001C299.502 300.001 299.31 299.996 299.172 299.985L298.34 299.969L297.492 299.985C297.353 299.996 297.161 300.001 296.916 300.001ZM307.438 300.193C307.001 300.193 306.643 300.097 306.366 299.905C306.089 299.703 305.95 299.372 305.95 298.913V295.105C305.95 294.817 305.929 294.62 305.886 294.513C305.854 294.396 305.785 294.321 305.678 294.289C305.571 294.247 305.385 294.225 305.118 294.225C305.086 294.225 305.07 294.193 305.07 294.129C305.07 294.065 305.086 294.033 305.118 294.033C305.523 294.033 305.849 293.921 306.094 293.697C306.35 293.473 306.478 293.191 306.478 292.849C306.478 292.817 306.521 292.801 306.606 292.801C306.681 292.801 306.718 292.817 306.718 292.849V298.369C306.718 299.255 307.15 299.697 308.014 299.697C308.505 299.697 308.937 299.553 309.31 299.265L309.342 299.249C309.374 299.249 309.401 299.276 309.422 299.329C309.443 299.372 309.438 299.404 309.406 299.425C309.011 299.703 308.665 299.9 308.366 300.017C308.067 300.135 307.758 300.193 307.438 300.193ZM308.926 294.593C308.542 294.497 308.163 294.433 307.79 294.401C307.427 294.369 307.006 294.353 306.526 294.353V294.017C307.177 294.017 307.993 293.964 308.974 293.857C309.006 293.857 309.033 293.895 309.054 293.969C309.075 294.033 309.086 294.119 309.086 294.225C309.086 294.311 309.07 294.396 309.038 294.481C309.006 294.567 308.969 294.604 308.926 294.593ZM248.648 317.641C248.648 317.983 248.696 318.233 248.792 318.393C248.888 318.543 249.069 318.649 249.336 318.713C249.613 318.777 250.051 318.809 250.648 318.809C250.68 318.809 250.696 318.841 250.696 318.905C250.696 318.969 250.68 319.001 250.648 319.001C250.211 319.001 249.869 318.996 249.624 318.985L248.232 318.969L247.176 318.985C246.984 318.996 246.717 319.001 246.376 319.001C246.355 319.001 246.344 318.969 246.344 318.905C246.344 318.841 246.355 318.809 246.376 318.809C246.792 318.809 247.096 318.783 247.288 318.729C247.491 318.676 247.624 318.575 247.688 318.425C247.763 318.265 247.8 318.025 247.8 317.705V310.297C247.8 309.977 247.763 309.743 247.688 309.593C247.624 309.444 247.491 309.343 247.288 309.289C247.096 309.225 246.792 309.193 246.376 309.193C246.355 309.193 246.344 309.161 246.344 309.097C246.344 309.033 246.355 309.001 246.376 309.001L247.16 309.017C247.608 309.039 247.96 309.049 248.216 309.049C248.472 309.049 248.765 309.033 249.096 309.001C249.928 308.969 250.381 308.953 250.456 308.953C251.395 308.953 252.157 309.172 252.744 309.609C253.331 310.036 253.624 310.692 253.624 311.577C253.624 312.292 253.448 312.895 253.096 313.385C252.744 313.865 252.296 314.223 251.752 314.457C251.219 314.692 250.664 314.809 250.088 314.809C249.768 314.809 249.507 314.783 249.304 314.729C249.272 314.729 249.256 314.703 249.256 314.649C249.256 314.617 249.261 314.585 249.272 314.553C249.293 314.521 249.315 314.511 249.336 314.521C249.507 314.564 249.699 314.585 249.912 314.585C250.669 314.585 251.309 314.356 251.832 313.897C252.365 313.439 252.632 312.772 252.632 311.897C252.632 311.332 252.52 310.847 252.296 310.441C252.072 310.025 251.763 309.711 251.368 309.497C250.984 309.273 250.557 309.161 250.088 309.161C249.651 309.161 249.341 309.183 249.16 309.225C248.979 309.268 248.845 309.369 248.76 309.529C248.685 309.679 248.648 309.945 248.648 310.329V317.641ZM256.473 314.505C257.049 313.78 257.481 313.295 257.769 313.049C258.067 312.804 258.35 312.681 258.617 312.681C258.851 312.681 259.07 312.745 259.273 312.873C259.486 312.991 259.593 313.129 259.593 313.289C259.593 313.396 259.55 313.492 259.465 313.577C259.39 313.663 259.278 313.705 259.129 313.705C259.022 313.705 258.926 313.679 258.841 313.625C258.755 313.561 258.702 313.524 258.681 313.513C258.478 313.353 258.275 313.273 258.073 313.273C257.913 313.273 257.731 313.359 257.529 313.529C257.337 313.7 257.006 314.079 256.537 314.665L256.473 314.505ZM255.049 319.001C255.017 319.001 255.001 318.969 255.001 318.905C255.001 318.841 255.017 318.809 255.049 318.809C255.358 318.809 255.582 318.783 255.721 318.729C255.859 318.676 255.955 318.575 256.009 318.425C256.062 318.265 256.089 318.025 256.089 317.705V314.505C256.089 314.132 256.046 313.865 255.961 313.705C255.875 313.545 255.726 313.465 255.513 313.465C255.342 313.465 255.043 313.545 254.617 313.705H254.585C254.542 313.705 254.51 313.684 254.489 313.641C254.478 313.588 254.494 313.551 254.537 313.529L256.312 312.697C256.334 312.687 256.361 312.681 256.393 312.681C256.478 312.681 256.574 312.804 256.681 313.049C256.787 313.284 256.841 313.588 256.841 313.961V317.705C256.841 318.025 256.878 318.265 256.953 318.425C257.027 318.575 257.171 318.676 257.385 318.729C257.609 318.783 257.961 318.809 258.441 318.809C258.473 318.809 258.489 318.841 258.489 318.905C258.489 318.969 258.473 319.001 258.441 319.001C258.099 319.001 257.827 318.996 257.625 318.985L256.473 318.969L255.625 318.985C255.486 318.996 255.294 319.001 255.049 319.001ZM263.571 319.209C262.963 319.209 262.424 319.06 261.955 318.761C261.485 318.452 261.123 318.041 260.867 317.529C260.611 317.007 260.483 316.441 260.483 315.833C260.483 315.14 260.648 314.553 260.979 314.073C261.32 313.583 261.747 313.22 262.259 312.985C262.781 312.74 263.315 312.617 263.859 312.617C264.477 312.617 265.016 312.772 265.475 313.081C265.944 313.391 266.301 313.801 266.547 314.313C266.803 314.815 266.931 315.348 266.931 315.913C266.931 316.575 266.776 317.156 266.467 317.657C266.168 318.159 265.763 318.543 265.251 318.809C264.739 319.076 264.179 319.209 263.571 319.209ZM264.019 318.921C264.637 318.921 265.123 318.713 265.475 318.297C265.827 317.881 266.003 317.225 266.003 316.329C266.003 315.689 265.891 315.113 265.667 314.601C265.443 314.079 265.128 313.668 264.723 313.369C264.317 313.071 263.853 312.921 263.331 312.921C262.723 312.921 262.248 313.135 261.907 313.561C261.565 313.977 261.395 314.58 261.395 315.369C261.395 316.009 261.507 316.601 261.731 317.145C261.955 317.679 262.264 318.111 262.659 318.441C263.053 318.761 263.507 318.921 264.019 318.921ZM270.092 312.793C270.092 312.857 270.086 313.071 270.076 313.433C270.065 313.785 270.06 314.196 270.06 314.665V319.769C270.06 320.495 269.996 321.087 269.868 321.545C269.74 322.015 269.521 322.404 269.212 322.713C268.913 323.023 268.497 323.289 267.964 323.513C267.942 323.524 267.916 323.497 267.884 323.433C267.862 323.38 267.862 323.348 267.884 323.337C268.406 323.113 268.774 322.756 268.988 322.265C269.201 321.775 269.308 321.065 269.308 320.137V314.681C269.308 314.287 269.27 314.004 269.196 313.833C269.121 313.663 268.988 313.577 268.796 313.577C268.593 313.577 268.337 313.657 268.028 313.817H268.012C267.958 313.817 267.921 313.791 267.9 313.737C267.889 313.684 267.905 313.647 267.948 313.625L269.932 312.697L269.98 312.681C270.054 312.681 270.092 312.719 270.092 312.793ZM269.548 310.745C269.345 310.745 269.185 310.692 269.068 310.585C268.961 310.479 268.908 310.329 268.908 310.137C268.908 309.945 268.961 309.796 269.068 309.689C269.185 309.583 269.345 309.529 269.548 309.529C269.74 309.529 269.889 309.583 269.996 309.689C270.102 309.796 270.156 309.945 270.156 310.137C270.156 310.329 270.102 310.479 269.996 310.585C269.889 310.692 269.74 310.745 269.548 310.745ZM275.034 319.193C274.426 319.193 273.908 319.049 273.482 318.761C273.055 318.473 272.73 318.1 272.506 317.641C272.292 317.172 272.186 316.665 272.186 316.121C272.186 315.492 272.335 314.916 272.634 314.393C272.932 313.86 273.332 313.444 273.834 313.145C274.346 312.836 274.9 312.681 275.498 312.681C276.095 312.681 276.543 312.847 276.842 313.177C277.151 313.497 277.306 313.94 277.306 314.505C277.306 314.655 277.29 314.761 277.258 314.825C277.236 314.879 277.188 314.905 277.114 314.905H276.362C276.372 314.831 276.378 314.729 276.378 314.601C276.378 314.068 276.25 313.668 275.994 313.401C275.748 313.135 275.412 313.001 274.986 313.001C274.388 313.001 273.924 313.225 273.594 313.673C273.263 314.121 273.098 314.745 273.098 315.545C273.098 316.473 273.316 317.231 273.754 317.817C274.191 318.393 274.804 318.681 275.594 318.681C275.924 318.681 276.207 318.639 276.442 318.553C276.676 318.457 276.932 318.319 277.21 318.137H277.226C277.258 318.137 277.284 318.159 277.306 318.201C277.338 318.233 277.343 318.265 277.322 318.297C276.618 318.895 275.855 319.193 275.034 319.193ZM272.874 314.729L276.522 314.665V314.905L272.89 314.921L272.874 314.729ZM281.664 319.193C280.982 319.193 280.406 319.044 279.936 318.745C279.478 318.436 279.136 318.041 278.912 317.561C278.688 317.081 278.576 316.575 278.576 316.041C278.576 315.359 278.742 314.767 279.072 314.265C279.414 313.753 279.846 313.364 280.368 313.097C280.902 312.82 281.446 312.681 282 312.681C282.459 312.681 282.875 312.772 283.248 312.953C283.632 313.135 283.824 313.348 283.824 313.593C283.824 313.721 283.782 313.833 283.696 313.929C283.611 314.015 283.499 314.057 283.36 314.057C283.115 314.057 282.902 313.908 282.72 313.609C282.582 313.407 282.416 313.257 282.224 313.161C282.043 313.055 281.798 313.001 281.488 313.001C280.848 313.001 280.352 313.236 280 313.705C279.659 314.164 279.488 314.788 279.488 315.577C279.488 316.473 279.718 317.22 280.176 317.817C280.635 318.404 281.318 318.697 282.224 318.697C282.907 318.697 283.456 318.511 283.872 318.137H283.904C283.936 318.137 283.963 318.153 283.984 318.185C284.016 318.217 284.016 318.244 283.984 318.265C283.622 318.585 283.254 318.82 282.88 318.969C282.507 319.119 282.102 319.193 281.664 319.193ZM287.524 319.193C287.087 319.193 286.729 319.097 286.452 318.905C286.175 318.703 286.036 318.372 286.036 317.913V314.105C286.036 313.817 286.015 313.62 285.972 313.513C285.94 313.396 285.871 313.321 285.764 313.289C285.657 313.247 285.471 313.225 285.204 313.225C285.172 313.225 285.156 313.193 285.156 313.129C285.156 313.065 285.172 313.033 285.204 313.033C285.609 313.033 285.935 312.921 286.18 312.697C286.436 312.473 286.564 312.191 286.564 311.849C286.564 311.817 286.607 311.801 286.692 311.801C286.767 311.801 286.804 311.817 286.804 311.849V317.369C286.804 318.255 287.236 318.697 288.1 318.697C288.591 318.697 289.023 318.553 289.396 318.265L289.428 318.249C289.46 318.249 289.487 318.276 289.508 318.329C289.529 318.372 289.524 318.404 289.492 318.425C289.097 318.703 288.751 318.9 288.452 319.017C288.153 319.135 287.844 319.193 287.524 319.193ZM289.012 313.593C288.628 313.497 288.249 313.433 287.876 313.401C287.513 313.369 287.092 313.353 286.612 313.353V313.017C287.263 313.017 288.079 312.964 289.06 312.857C289.092 312.857 289.119 312.895 289.14 312.969C289.161 313.033 289.172 313.119 289.172 313.225C289.172 313.311 289.156 313.396 289.124 313.481C289.092 313.567 289.055 313.604 289.012 313.593ZM291.458 313.849C291.458 314.244 291.581 314.553 291.826 314.777C292.071 314.991 292.445 315.22 292.946 315.465C293.309 315.647 293.597 315.807 293.81 315.945C294.023 316.084 294.205 316.265 294.354 316.489C294.503 316.703 294.578 316.964 294.578 317.273C294.578 317.807 294.375 318.26 293.97 318.633C293.575 318.996 293.031 319.177 292.338 319.177C291.773 319.177 291.271 319.012 290.834 318.681C290.77 318.639 290.738 318.575 290.738 318.489L290.706 317.337C290.706 317.305 290.733 317.289 290.786 317.289C290.85 317.279 290.887 317.289 290.898 317.321C291.101 317.855 291.357 318.249 291.666 318.505C291.986 318.751 292.365 318.873 292.802 318.873C293.165 318.873 293.442 318.793 293.634 318.633C293.826 318.473 293.922 318.239 293.922 317.929C293.922 317.62 293.853 317.364 293.714 317.161C293.586 316.948 293.421 316.777 293.218 316.649C293.026 316.521 292.759 316.377 292.418 316.217C292.066 316.047 291.783 315.897 291.57 315.769C291.367 315.631 291.191 315.449 291.042 315.225C290.903 315.001 290.834 314.724 290.834 314.393C290.834 313.828 291.047 313.391 291.474 313.081C291.901 312.772 292.402 312.617 292.978 312.617C293.373 312.617 293.751 312.697 294.114 312.857C294.178 312.889 294.215 312.916 294.226 312.937C294.247 312.959 294.258 312.991 294.258 313.033C294.258 313.236 294.253 313.396 294.242 313.513L294.226 314.137C294.226 314.159 294.194 314.169 294.13 314.169C294.066 314.169 294.034 314.159 294.034 314.137C294.034 313.796 293.858 313.513 293.506 313.289C293.154 313.055 292.781 312.937 292.386 312.937C292.098 312.937 291.869 313.017 291.698 313.177C291.538 313.327 291.458 313.551 291.458 313.849Z" fill="black"/>
<path d="M100.5 429.001H97.7812V398.557C97.7812 396.084 97.8568 393.412 98.0078 390.542C97.6113 391.071 96.6862 392.062 95.2324 393.516L91.6924 396.745L90.248 394.96L98.2344 387.597H100.5V429.001ZM129.868 408.243C129.868 415.247 129.104 420.553 127.574 424.159C126.064 427.765 123.798 429.568 120.777 429.568C117.587 429.568 115.274 427.906 113.839 424.583C112.423 421.242 111.715 415.795 111.715 408.243C111.715 394.082 114.736 387.002 120.777 387.002C123.911 387.002 126.205 388.758 127.659 392.27C129.132 395.782 129.868 401.106 129.868 408.243ZM114.604 408.243C114.604 414.473 115.094 419.146 116.076 422.261C117.077 425.358 118.644 426.906 120.777 426.906C124.912 426.906 126.979 420.685 126.979 408.243C126.979 395.857 124.912 389.664 120.777 389.664C118.644 389.664 117.077 391.194 116.076 394.252C115.094 397.311 114.604 401.974 114.604 408.243ZM142.896 409.687H134.116V407.365H142.896V395.074H145.218V407.365H153.969V409.687H145.218V421.921H142.896V409.687Z" fill="black"/>
<path d="M103.475 441.585C103.709 441.201 103.827 440.908 103.827 440.705C103.827 440.364 103.539 440.193 102.963 440.193C102.941 440.193 102.931 440.161 102.931 440.097C102.931 440.033 102.941 440.001 102.963 440.001L103.683 440.017C104.088 440.039 104.445 440.049 104.755 440.049C104.936 440.049 105.155 440.039 105.411 440.017L106.003 440.001C106.024 440.001 106.035 440.033 106.035 440.097C106.035 440.161 106.024 440.193 106.003 440.193C105.608 440.193 105.224 440.321 104.851 440.577C104.477 440.823 104.141 441.175 103.843 441.633L101.235 445.585L100.979 445.361L103.475 441.585ZM98.0026 441.329C97.7252 440.913 97.4532 440.62 97.1866 440.449C96.9199 440.279 96.5892 440.193 96.1946 440.193C96.1626 440.193 96.1466 440.161 96.1466 440.097C96.1466 440.033 96.1626 440.001 96.1946 440.001L96.7866 440.017C97.0426 440.039 97.2346 440.049 97.3626 440.049C97.7146 440.049 98.1466 440.039 98.6586 440.017L99.4906 440.001C99.5119 440.001 99.5226 440.033 99.5226 440.097C99.5226 440.161 99.5119 440.193 99.4906 440.193C99.1706 440.193 98.9359 440.22 98.7866 440.273C98.6479 440.316 98.5786 440.391 98.5786 440.497C98.5786 440.561 98.6319 440.673 98.7386 440.833L101.587 444.929L100.995 445.665L98.0026 441.329ZM101.587 444.897V448.705C101.587 449.036 101.619 449.276 101.683 449.425C101.747 449.575 101.875 449.676 102.067 449.729C102.259 449.783 102.568 449.809 102.995 449.809C103.027 449.809 103.043 449.841 103.043 449.905C103.043 449.969 103.027 450.001 102.995 450.001C102.675 450.001 102.424 449.996 102.243 449.985L101.155 449.969L100.067 449.985C99.8746 449.996 99.6186 450.001 99.2986 450.001C99.2666 450.001 99.2506 449.969 99.2506 449.905C99.2506 449.841 99.2666 449.809 99.2986 449.809C99.7146 449.809 100.019 449.783 100.211 449.729C100.413 449.676 100.552 449.575 100.627 449.425C100.701 449.265 100.739 449.025 100.739 448.705V445.041L101.587 444.897ZM107.698 450.193C107.09 450.193 106.572 450.049 106.146 449.761C105.719 449.473 105.394 449.1 105.17 448.641C104.956 448.172 104.85 447.665 104.85 447.121C104.85 446.492 104.999 445.916 105.298 445.393C105.596 444.86 105.996 444.444 106.498 444.145C107.01 443.836 107.564 443.681 108.162 443.681C108.759 443.681 109.207 443.847 109.506 444.177C109.815 444.497 109.97 444.94 109.97 445.505C109.97 445.655 109.954 445.761 109.922 445.825C109.9 445.879 109.852 445.905 109.778 445.905H109.026C109.036 445.831 109.042 445.729 109.042 445.601C109.042 445.068 108.914 444.668 108.658 444.401C108.412 444.135 108.076 444.001 107.65 444.001C107.052 444.001 106.588 444.225 106.258 444.673C105.927 445.121 105.762 445.745 105.762 446.545C105.762 447.473 105.98 448.231 106.418 448.817C106.855 449.393 107.468 449.681 108.258 449.681C108.588 449.681 108.871 449.639 109.106 449.553C109.34 449.457 109.596 449.319 109.874 449.137H109.89C109.922 449.137 109.948 449.159 109.97 449.201C110.002 449.233 110.007 449.265 109.986 449.297C109.282 449.895 108.519 450.193 107.698 450.193ZM105.538 445.729L109.186 445.665V445.905L105.554 445.921L105.538 445.729ZM115.656 450.097C115.614 450.119 115.571 450.129 115.528 450.129C115.39 450.129 115.267 450.012 115.16 449.777C115.064 449.543 115.016 449.223 115.016 448.817V445.729C115.016 444.556 114.654 443.969 113.928 443.969C113.566 443.969 113.283 444.087 113.08 444.321C112.878 444.545 112.739 444.812 112.664 445.121C112.622 445.313 112.568 445.463 112.504 445.569C112.451 445.665 112.334 445.713 112.152 445.713C112.003 445.713 111.886 445.671 111.8 445.585C111.715 445.489 111.672 445.383 111.672 445.265C111.672 445.031 111.827 444.791 112.136 444.545C112.456 444.289 112.84 444.081 113.288 443.921C113.736 443.751 114.136 443.665 114.488 443.665C114.915 443.665 115.23 443.804 115.432 444.081C115.646 444.359 115.752 444.748 115.752 445.249V448.273C115.752 448.668 115.795 448.951 115.88 449.121C115.976 449.292 116.136 449.377 116.36 449.377C116.563 449.377 116.856 449.297 117.24 449.137H117.272C117.315 449.137 117.342 449.164 117.352 449.217C117.363 449.26 117.347 449.292 117.304 449.313L115.656 450.097ZM112.824 450.113C112.451 450.113 112.152 450.007 111.928 449.793C111.715 449.58 111.608 449.324 111.608 449.025C111.608 448.727 111.726 448.46 111.96 448.225C112.195 447.98 112.6 447.751 113.176 447.537L115.176 446.785L115.208 446.993L113.32 447.713C113.011 447.841 112.798 447.98 112.68 448.129C112.563 448.279 112.504 448.455 112.504 448.657C112.504 448.913 112.584 449.132 112.744 449.313C112.904 449.495 113.128 449.585 113.416 449.585C113.651 449.585 113.928 449.495 114.248 449.313L115.32 448.689L115.352 448.881L114.152 449.633C113.886 449.804 113.651 449.927 113.448 450.001C113.246 450.076 113.038 450.113 112.824 450.113ZM119.512 445.505C120.088 444.78 120.52 444.295 120.808 444.049C121.106 443.804 121.389 443.681 121.656 443.681C121.89 443.681 122.109 443.745 122.312 443.873C122.525 443.991 122.632 444.129 122.632 444.289C122.632 444.396 122.589 444.492 122.504 444.577C122.429 444.663 122.317 444.705 122.168 444.705C122.061 444.705 121.965 444.679 121.88 444.625C121.794 444.561 121.741 444.524 121.72 444.513C121.517 444.353 121.314 444.273 121.112 444.273C120.952 444.273 120.77 444.359 120.568 444.529C120.376 444.7 120.045 445.079 119.576 445.665L119.512 445.505ZM118.088 450.001C118.056 450.001 118.04 449.969 118.04 449.905C118.04 449.841 118.056 449.809 118.088 449.809C118.397 449.809 118.621 449.783 118.76 449.729C118.898 449.676 118.994 449.575 119.048 449.425C119.101 449.265 119.128 449.025 119.128 448.705V445.505C119.128 445.132 119.085 444.865 119 444.705C118.914 444.545 118.765 444.465 118.552 444.465C118.381 444.465 118.082 444.545 117.656 444.705H117.624C117.581 444.705 117.549 444.684 117.528 444.641C117.517 444.588 117.533 444.551 117.576 444.529L119.352 443.697C119.373 443.687 119.4 443.681 119.432 443.681C119.517 443.681 119.613 443.804 119.72 444.049C119.826 444.284 119.88 444.588 119.88 444.961V448.705C119.88 449.025 119.917 449.265 119.992 449.425C120.066 449.575 120.21 449.676 120.424 449.729C120.648 449.783 121 449.809 121.48 449.809C121.512 449.809 121.528 449.841 121.528 449.905C121.528 449.969 121.512 450.001 121.48 450.001C121.138 450.001 120.866 449.996 120.664 449.985L119.512 449.969L118.664 449.985C118.525 449.996 118.333 450.001 118.088 450.001ZM124.653 444.849C124.653 445.244 124.776 445.553 125.021 445.777C125.267 445.991 125.64 446.22 126.141 446.465C126.504 446.647 126.792 446.807 127.005 446.945C127.219 447.084 127.4 447.265 127.549 447.489C127.699 447.703 127.773 447.964 127.773 448.273C127.773 448.807 127.571 449.26 127.165 449.633C126.771 449.996 126.227 450.177 125.533 450.177C124.968 450.177 124.467 450.012 124.029 449.681C123.965 449.639 123.933 449.575 123.933 449.489L123.901 448.337C123.901 448.305 123.928 448.289 123.981 448.289C124.045 448.279 124.083 448.289 124.093 448.321C124.296 448.855 124.552 449.249 124.861 449.505C125.181 449.751 125.56 449.873 125.997 449.873C126.36 449.873 126.637 449.793 126.829 449.633C127.021 449.473 127.117 449.239 127.117 448.929C127.117 448.62 127.048 448.364 126.909 448.161C126.781 447.948 126.616 447.777 126.413 447.649C126.221 447.521 125.955 447.377 125.613 447.217C125.261 447.047 124.979 446.897 124.765 446.769C124.563 446.631 124.387 446.449 124.237 446.225C124.099 446.001 124.029 445.724 124.029 445.393C124.029 444.828 124.243 444.391 124.669 444.081C125.096 443.772 125.597 443.617 126.173 443.617C126.568 443.617 126.947 443.697 127.309 443.857C127.373 443.889 127.411 443.916 127.421 443.937C127.443 443.959 127.453 443.991 127.453 444.033C127.453 444.236 127.448 444.396 127.437 444.513L127.421 445.137C127.421 445.159 127.389 445.169 127.325 445.169C127.261 445.169 127.229 445.159 127.229 445.137C127.229 444.796 127.053 444.513 126.701 444.289C126.349 444.055 125.976 443.937 125.581 443.937C125.293 443.937 125.064 444.017 124.893 444.177C124.733 444.327 124.653 444.551 124.653 444.849ZM135.953 450.209C135.345 450.209 134.807 450.06 134.337 449.761C133.868 449.452 133.505 449.041 133.249 448.529C132.993 448.007 132.865 447.441 132.865 446.833C132.865 446.14 133.031 445.553 133.361 445.073C133.703 444.583 134.129 444.22 134.641 443.985C135.164 443.74 135.697 443.617 136.241 443.617C136.86 443.617 137.399 443.772 137.857 444.081C138.327 444.391 138.684 444.801 138.929 445.313C139.185 445.815 139.313 446.348 139.313 446.913C139.313 447.575 139.159 448.156 138.849 448.657C138.551 449.159 138.145 449.543 137.633 449.809C137.121 450.076 136.561 450.209 135.953 450.209ZM136.401 449.921C137.02 449.921 137.505 449.713 137.857 449.297C138.209 448.881 138.385 448.225 138.385 447.329C138.385 446.689 138.273 446.113 138.049 445.601C137.825 445.079 137.511 444.668 137.105 444.369C136.7 444.071 136.236 443.921 135.713 443.921C135.105 443.921 134.631 444.135 134.289 444.561C133.948 444.977 133.777 445.58 133.777 446.369C133.777 447.009 133.889 447.601 134.113 448.145C134.337 448.679 134.647 449.111 135.041 449.441C135.436 449.761 135.889 449.921 136.401 449.921ZM140.426 450.001C140.394 450.001 140.378 449.969 140.378 449.905C140.378 449.841 140.394 449.809 140.426 449.809C140.757 449.809 140.997 449.783 141.146 449.729C141.306 449.665 141.413 449.559 141.466 449.409C141.53 449.26 141.562 449.025 141.562 448.705V445.105C141.562 444.817 141.536 444.62 141.482 444.513C141.44 444.396 141.338 444.321 141.178 444.289C141.029 444.247 140.757 444.225 140.362 444.225C140.33 444.225 140.314 444.193 140.314 444.129C140.314 444.065 140.33 444.033 140.362 444.033C140.821 444.033 141.13 443.985 141.29 443.889C141.45 443.783 141.536 443.591 141.546 443.313C141.6 441.585 141.909 440.332 142.474 439.553C143.05 438.775 143.893 438.385 145.002 438.385C145.536 438.385 145.978 438.471 146.33 438.641C146.682 438.801 146.858 438.988 146.858 439.201C146.858 439.34 146.81 439.452 146.714 439.537C146.618 439.612 146.501 439.649 146.362 439.649C146.256 439.649 146.16 439.628 146.074 439.585C145.989 439.532 145.893 439.436 145.786 439.297C145.605 439.073 145.408 438.908 145.194 438.801C144.992 438.695 144.746 438.641 144.458 438.641C143.808 438.641 143.29 439.004 142.906 439.729C142.522 440.444 142.33 441.527 142.33 442.977V448.705C142.33 449.036 142.368 449.276 142.442 449.425C142.517 449.575 142.661 449.676 142.874 449.729C143.098 449.783 143.456 449.809 143.946 449.809C143.968 449.809 143.978 449.841 143.978 449.905C143.978 449.969 143.968 450.001 143.946 450.001L142.922 449.985C142.709 449.975 142.378 449.969 141.93 449.969L141.05 449.985C140.901 449.996 140.693 450.001 140.426 450.001ZM144.41 444.593C144.026 444.497 143.648 444.433 143.274 444.401C142.912 444.369 142.49 444.353 142.01 444.353V444.017C142.661 444.017 143.477 443.964 144.458 443.857C144.49 443.857 144.517 443.895 144.538 443.969C144.56 444.033 144.57 444.119 144.57 444.225C144.57 444.311 144.554 444.396 144.522 444.481C144.49 444.567 144.453 444.604 144.41 444.593ZM89.0634 469.001C89.042 469.001 89.0314 468.969 89.0314 468.905C89.0314 468.841 89.042 468.809 89.0634 468.809C89.4794 468.809 89.7834 468.783 89.9754 468.729C90.178 468.676 90.3114 468.575 90.3754 468.425C90.45 468.265 90.4874 468.025 90.4874 467.705V460.297C90.4874 459.977 90.45 459.743 90.3754 459.593C90.3114 459.444 90.178 459.343 89.9754 459.289C89.7834 459.225 89.4794 459.193 89.0634 459.193C89.042 459.193 89.0314 459.161 89.0314 459.097C89.0314 459.033 89.042 459.001 89.0634 459.001H95.3994C95.4954 459.001 95.5434 459.049 95.5434 459.145L95.5754 461.081C95.5754 461.113 95.5434 461.129 95.4794 461.129C95.426 461.129 95.3994 461.113 95.3994 461.081C95.3994 460.537 95.2554 460.105 94.9674 459.785C94.6794 459.465 94.3007 459.305 93.8314 459.305H92.7274C92.322 459.305 92.0234 459.332 91.8314 459.385C91.6394 459.439 91.506 459.54 91.4314 459.689C91.3674 459.839 91.3354 460.073 91.3354 460.393V467.641C91.3354 467.951 91.3674 468.18 91.4314 468.329C91.506 468.468 91.634 468.564 91.8154 468.617C92.0074 468.671 92.3114 468.697 92.7274 468.697H94.1994C94.626 468.697 94.9887 468.511 95.2874 468.137C95.5967 467.764 95.794 467.273 95.8794 466.665C95.8794 466.633 95.9114 466.623 95.9754 466.633C96.0394 466.633 96.0714 466.649 96.0714 466.681C95.9754 467.353 95.9274 468.047 95.9274 468.761C95.9274 468.847 95.906 468.911 95.8634 468.953C95.8314 468.985 95.7674 469.001 95.6714 469.001H89.0634ZM94.7754 465.241C94.7754 464.761 94.674 464.425 94.4714 464.233C94.2687 464.041 93.9114 463.945 93.3994 463.945H90.9354V463.641H93.4474C93.938 463.641 94.2794 463.561 94.4714 463.401C94.6634 463.231 94.7594 462.943 94.7594 462.537C94.7594 462.516 94.7914 462.505 94.8554 462.505C94.9194 462.505 94.9514 462.516 94.9514 462.537L94.9354 463.801C94.9354 464.111 94.9407 464.34 94.9514 464.489L94.9674 465.241C94.9674 465.263 94.9354 465.273 94.8714 465.273C94.8074 465.273 94.7754 465.263 94.7754 465.241ZM101.083 469.001C101.051 469.001 101.035 468.969 101.035 468.905C101.035 468.841 101.051 468.809 101.083 468.809C101.285 468.809 101.429 468.799 101.515 468.777C101.611 468.745 101.659 468.692 101.659 468.617C101.659 468.553 101.589 468.409 101.451 468.185L98.7786 464.153C98.512 463.748 98.2346 463.46 97.9466 463.289C97.6586 463.108 97.392 463.017 97.1466 463.017C97.1253 463.017 97.1146 462.985 97.1146 462.921C97.1146 462.857 97.1253 462.825 97.1466 462.825C97.3706 462.825 97.536 462.831 97.6426 462.841L98.1386 462.857L99.1466 462.841C99.296 462.831 99.4986 462.825 99.7546 462.825C99.776 462.825 99.7866 462.857 99.7866 462.921C99.7866 462.985 99.776 463.017 99.7546 463.017C99.552 463.017 99.4026 463.033 99.3066 463.065C99.2213 463.087 99.1786 463.135 99.1786 463.209C99.1786 463.273 99.248 463.417 99.3866 463.641L102.059 467.673C102.325 468.079 102.603 468.372 102.891 468.553C103.179 468.724 103.445 468.809 103.691 468.809C103.712 468.809 103.723 468.841 103.723 468.905C103.723 468.969 103.712 469.001 103.691 469.001L103.179 468.985C103.072 468.975 102.912 468.969 102.699 468.969L101.691 468.985C101.541 468.996 101.339 469.001 101.083 469.001ZM97.1306 469.001C97.1093 469.001 97.0986 468.969 97.0986 468.905C97.0986 468.841 97.1093 468.809 97.1306 468.809C97.3973 468.809 97.6853 468.719 97.9946 468.537C98.3146 468.345 98.6026 468.068 98.8586 467.705L100.203 465.833L100.395 465.977L99.1306 467.801C99.0453 467.929 98.9706 468.052 98.9066 468.169C98.8533 468.276 98.8266 468.372 98.8266 468.457C98.8266 468.692 99.1466 468.809 99.7866 468.809C99.8186 468.809 99.8346 468.841 99.8346 468.905C99.8346 468.969 99.8186 469.001 99.7866 469.001C99.4986 469.001 99.2853 468.996 99.1466 468.985L98.1866 468.969L97.6266 468.985C97.52 468.996 97.3546 469.001 97.1306 469.001ZM100.283 465.769L101.451 464.025C101.675 463.716 101.787 463.492 101.787 463.353C101.787 463.236 101.712 463.151 101.563 463.097C101.413 463.044 101.157 463.017 100.795 463.017C100.773 463.017 100.763 462.985 100.763 462.921C100.763 462.857 100.773 462.825 100.795 462.825C101.083 462.825 101.301 462.831 101.451 462.841L102.411 462.857L102.971 462.841C103.077 462.831 103.243 462.825 103.467 462.825C103.488 462.825 103.499 462.857 103.499 462.921C103.499 462.985 103.488 463.017 103.467 463.017C103.189 463.017 102.901 463.108 102.603 463.289C102.304 463.46 102.016 463.737 101.739 464.121L100.427 465.913L100.283 465.769ZM107.602 469.193C106.919 469.193 106.343 469.044 105.874 468.745C105.415 468.436 105.074 468.041 104.85 467.561C104.626 467.081 104.514 466.575 104.514 466.041C104.514 465.359 104.679 464.767 105.01 464.265C105.351 463.753 105.783 463.364 106.306 463.097C106.839 462.82 107.383 462.681 107.938 462.681C108.397 462.681 108.813 462.772 109.186 462.953C109.57 463.135 109.762 463.348 109.762 463.593C109.762 463.721 109.719 463.833 109.634 463.929C109.549 464.015 109.437 464.057 109.298 464.057C109.053 464.057 108.839 463.908 108.658 463.609C108.519 463.407 108.354 463.257 108.162 463.161C107.981 463.055 107.735 463.001 107.426 463.001C106.786 463.001 106.29 463.236 105.938 463.705C105.597 464.164 105.426 464.788 105.426 465.577C105.426 466.473 105.655 467.22 106.114 467.817C106.573 468.404 107.255 468.697 108.162 468.697C108.845 468.697 109.394 468.511 109.81 468.137H109.842C109.874 468.137 109.901 468.153 109.922 468.185C109.954 468.217 109.954 468.244 109.922 468.265C109.559 468.585 109.191 468.82 108.818 468.969C108.445 469.119 108.039 469.193 107.602 469.193ZM113.784 469.193C113.176 469.193 112.658 469.049 112.232 468.761C111.805 468.473 111.48 468.1 111.256 467.641C111.042 467.172 110.936 466.665 110.936 466.121C110.936 465.492 111.085 464.916 111.384 464.393C111.682 463.86 112.082 463.444 112.584 463.145C113.096 462.836 113.65 462.681 114.248 462.681C114.845 462.681 115.293 462.847 115.592 463.177C115.901 463.497 116.056 463.94 116.056 464.505C116.056 464.655 116.04 464.761 116.008 464.825C115.986 464.879 115.938 464.905 115.864 464.905H115.112C115.122 464.831 115.128 464.729 115.128 464.601C115.128 464.068 115 463.668 114.744 463.401C114.498 463.135 114.162 463.001 113.736 463.001C113.138 463.001 112.674 463.225 112.344 463.673C112.013 464.121 111.848 464.745 111.848 465.545C111.848 466.473 112.066 467.231 112.504 467.817C112.941 468.393 113.554 468.681 114.344 468.681C114.674 468.681 114.957 468.639 115.192 468.553C115.426 468.457 115.682 468.319 115.96 468.137H115.976C116.008 468.137 116.034 468.159 116.056 468.201C116.088 468.233 116.093 468.265 116.072 468.297C115.368 468.895 114.605 469.193 113.784 469.193ZM111.624 464.729L115.272 464.665V464.905L111.64 464.921L111.624 464.729ZM117.484 469.001C117.452 469.001 117.436 468.969 117.436 468.905C117.436 468.841 117.452 468.809 117.484 468.809C117.793 468.809 118.017 468.783 118.156 468.729C118.295 468.676 118.391 468.575 118.444 468.425C118.497 468.265 118.524 468.025 118.524 467.705V459.401C118.524 459.007 118.487 458.724 118.412 458.553C118.337 458.383 118.204 458.297 118.012 458.297C117.841 458.297 117.585 458.377 117.244 458.537H117.212C117.169 458.537 117.137 458.511 117.116 458.457C117.105 458.404 117.121 458.372 117.164 458.361L119.132 457.417C119.153 457.407 119.18 457.401 119.212 457.401C119.233 457.401 119.255 457.412 119.276 457.433C119.308 457.455 119.324 457.481 119.324 457.513V467.705C119.324 468.025 119.345 468.26 119.388 468.409C119.441 468.559 119.537 468.665 119.676 468.729C119.825 468.783 120.055 468.809 120.364 468.809C120.396 468.809 120.412 468.841 120.412 468.905C120.412 468.969 120.396 469.001 120.364 469.001C120.129 469.001 119.937 468.996 119.788 468.985L118.924 468.969L118.06 468.985C117.921 468.996 117.729 469.001 117.484 469.001ZM121.578 469.001C121.546 469.001 121.53 468.969 121.53 468.905C121.53 468.841 121.546 468.809 121.578 468.809C121.887 468.809 122.111 468.783 122.25 468.729C122.389 468.676 122.485 468.575 122.538 468.425C122.591 468.265 122.618 468.025 122.618 467.705V459.401C122.618 459.007 122.581 458.724 122.506 458.553C122.431 458.383 122.298 458.297 122.106 458.297C121.935 458.297 121.679 458.377 121.338 458.537H121.306C121.263 458.537 121.231 458.511 121.21 458.457C121.199 458.404 121.215 458.372 121.258 458.361L123.226 457.417C123.247 457.407 123.274 457.401 123.306 457.401C123.327 457.401 123.349 457.412 123.37 457.433C123.402 457.455 123.418 457.481 123.418 457.513V467.705C123.418 468.025 123.439 468.26 123.482 468.409C123.535 468.559 123.631 468.665 123.77 468.729C123.919 468.783 124.149 468.809 124.458 468.809C124.49 468.809 124.506 468.841 124.506 468.905C124.506 468.969 124.49 469.001 124.458 469.001C124.223 469.001 124.031 468.996 123.882 468.985L123.018 468.969L122.154 468.985C122.015 468.996 121.823 469.001 121.578 469.001ZM128.456 469.193C127.848 469.193 127.33 469.049 126.904 468.761C126.477 468.473 126.152 468.1 125.928 467.641C125.714 467.172 125.608 466.665 125.608 466.121C125.608 465.492 125.757 464.916 126.056 464.393C126.354 463.86 126.754 463.444 127.256 463.145C127.768 462.836 128.322 462.681 128.92 462.681C129.517 462.681 129.965 462.847 130.264 463.177C130.573 463.497 130.728 463.94 130.728 464.505C130.728 464.655 130.712 464.761 130.68 464.825C130.658 464.879 130.61 464.905 130.536 464.905H129.784C129.794 464.831 129.8 464.729 129.8 464.601C129.8 464.068 129.672 463.668 129.416 463.401C129.17 463.135 128.834 463.001 128.408 463.001C127.81 463.001 127.346 463.225 127.016 463.673C126.685 464.121 126.52 464.745 126.52 465.545C126.52 466.473 126.738 467.231 127.176 467.817C127.613 468.393 128.226 468.681 129.016 468.681C129.346 468.681 129.629 468.639 129.864 468.553C130.098 468.457 130.354 468.319 130.632 468.137H130.648C130.68 468.137 130.706 468.159 130.728 468.201C130.76 468.233 130.765 468.265 130.744 468.297C130.04 468.895 129.277 469.193 128.456 469.193ZM126.296 464.729L129.944 464.665V464.905L126.312 464.921L126.296 464.729ZM136.54 469.001C136.508 469.001 136.492 468.969 136.492 468.905C136.492 468.841 136.508 468.809 136.54 468.809C136.849 468.809 137.073 468.783 137.212 468.729C137.351 468.676 137.447 468.575 137.5 468.425C137.553 468.265 137.58 468.025 137.58 467.705V465.033C137.58 464.383 137.457 463.908 137.212 463.609C136.967 463.311 136.583 463.161 136.06 463.161C135.655 463.161 135.239 463.3 134.812 463.577C134.396 463.844 134.033 464.207 133.724 464.665L133.66 464.473C134.151 463.823 134.625 463.353 135.084 463.065C135.543 462.767 136.012 462.617 136.492 462.617C137.089 462.617 137.543 462.777 137.852 463.097C138.172 463.417 138.332 463.903 138.332 464.553V467.705C138.332 468.025 138.353 468.265 138.396 468.425C138.449 468.575 138.545 468.676 138.684 468.729C138.833 468.783 139.063 468.809 139.372 468.809C139.404 468.809 139.42 468.841 139.42 468.905C139.42 468.969 139.404 469.001 139.372 469.001C139.127 469.001 138.935 468.996 138.796 468.985L137.964 468.969L137.116 468.985C136.977 468.996 136.785 469.001 136.54 469.001ZM132.236 469.001C132.204 469.001 132.188 468.969 132.188 468.905C132.188 468.841 132.204 468.809 132.236 468.809C132.545 468.809 132.769 468.783 132.908 468.729C133.047 468.676 133.143 468.575 133.196 468.425C133.249 468.265 133.276 468.025 133.276 467.705V464.505C133.276 464.132 133.233 463.865 133.148 463.705C133.063 463.545 132.913 463.465 132.7 463.465C132.529 463.465 132.231 463.545 131.804 463.705H131.772C131.729 463.705 131.697 463.684 131.676 463.641C131.665 463.588 131.681 463.551 131.724 463.529L133.5 462.697C133.521 462.687 133.548 462.681 133.58 462.681C133.665 462.681 133.761 462.804 133.868 463.049C133.975 463.284 134.028 463.588 134.028 463.961V467.705C134.028 468.025 134.049 468.265 134.092 468.425C134.145 468.575 134.241 468.676 134.38 468.729C134.529 468.783 134.759 468.809 135.068 468.809C135.1 468.809 135.116 468.841 135.116 468.905C135.116 468.969 135.1 469.001 135.068 469.001C134.823 469.001 134.631 468.996 134.492 468.985L133.66 468.969L132.812 468.985C132.673 468.996 132.481 469.001 132.236 469.001ZM143.414 469.193C142.732 469.193 142.156 469.044 141.686 468.745C141.228 468.436 140.886 468.041 140.662 467.561C140.438 467.081 140.326 466.575 140.326 466.041C140.326 465.359 140.492 464.767 140.822 464.265C141.164 463.753 141.596 463.364 142.118 463.097C142.652 462.82 143.196 462.681 143.75 462.681C144.209 462.681 144.625 462.772 144.998 462.953C145.382 463.135 145.574 463.348 145.574 463.593C145.574 463.721 145.532 463.833 145.446 463.929C145.361 464.015 145.249 464.057 145.11 464.057C144.865 464.057 144.652 463.908 144.47 463.609C144.332 463.407 144.166 463.257 143.974 463.161C143.793 463.055 143.548 463.001 143.238 463.001C142.598 463.001 142.102 463.236 141.75 463.705C141.409 464.164 141.238 464.788 141.238 465.577C141.238 466.473 141.468 467.22 141.926 467.817C142.385 468.404 143.068 468.697 143.974 468.697C144.657 468.697 145.206 468.511 145.622 468.137H145.654C145.686 468.137 145.713 468.153 145.734 468.185C145.766 468.217 145.766 468.244 145.734 468.265C145.372 468.585 145.004 468.82 144.63 468.969C144.257 469.119 143.852 469.193 143.414 469.193ZM149.596 469.193C148.988 469.193 148.471 469.049 148.044 468.761C147.618 468.473 147.292 468.1 147.068 467.641C146.855 467.172 146.748 466.665 146.748 466.121C146.748 465.492 146.898 464.916 147.196 464.393C147.495 463.86 147.895 463.444 148.396 463.145C148.908 462.836 149.463 462.681 150.06 462.681C150.658 462.681 151.106 462.847 151.404 463.177C151.714 463.497 151.868 463.94 151.868 464.505C151.868 464.655 151.852 464.761 151.82 464.825C151.799 464.879 151.751 464.905 151.676 464.905H150.924C150.935 464.831 150.94 464.729 150.94 464.601C150.94 464.068 150.812 463.668 150.556 463.401C150.311 463.135 149.975 463.001 149.548 463.001C148.951 463.001 148.487 463.225 148.156 463.673C147.826 464.121 147.66 464.745 147.66 465.545C147.66 466.473 147.879 467.231 148.316 467.817C148.754 468.393 149.367 468.681 150.156 468.681C150.487 468.681 150.77 468.639 151.004 468.553C151.239 468.457 151.495 468.319 151.772 468.137H151.788C151.82 468.137 151.847 468.159 151.868 468.201C151.9 468.233 151.906 468.265 151.884 468.297C151.18 468.895 150.418 469.193 149.596 469.193ZM147.436 464.729L151.084 464.665V464.905L147.452 464.921L147.436 464.729Z" fill="black"/>
<line x1="46.2" y1="48.0026" x2="46.2" stroke="url(#paint0_linear_93_271)" stroke-width="0.6"/>
<line x1="49" y1="45.3014" x2="14" y2="45.3014" stroke="url(#paint1_linear_93_271)" stroke-width="0.6"/>
<line x1="195" y1="45.2014" x2="243.003" y2="45.2014" stroke="url(#paint2_linear_93_271)" stroke-width="0.6"/>
<line x1="344.996" y1="195.701" x2="429.996" y2="194.701" stroke="url(#paint3_linear_93_271)" stroke-width="0.6"/>
<line x1="345" y1="344.701" x2="409" y2="344.701" stroke="url(#paint4_linear_93_271)" stroke-width="0.6"/>
<line x1="195.7" y1="45.0014" x2="195.7" y2="24.0014" stroke="url(#paint5_linear_93_271)" stroke-width="0.6"/>
<line x1="345.7" y1="195.001" x2="345.7" y2="166.001" stroke="url(#paint6_linear_93_271)" stroke-width="0.6"/>
<line x1="345.8" y1="342.997" x2="346.3" y2="380.997" stroke="url(#paint7_linear_93_271)" stroke-width="0.6"/>
<line x1="46.3" y1="495.001" x2="46.3" y2="569.001" stroke="url(#paint8_linear_93_271)" stroke-width="0.6"/>
<line x1="46.3" y1="193.001" x2="46.3" y2="267.001" stroke="url(#paint9_linear_93_271)" stroke-width="0.6"/>
<line x1="46.2" y1="353.001" x2="46.2" y2="279.001" stroke="url(#paint10_linear_93_271)" stroke-width="0.6"/>
<line x1="48.0027" y1="494.801" x2="6.10352e-05" y2="494.801" stroke="url(#paint11_linear_93_271)" stroke-width="0.6"/>
<line x1="194.995" y1="494.701" x2="260.995" y2="493.701" stroke="url(#paint12_linear_93_271)" stroke-width="0.6"/>
<line x1="195.8" y1="494.001" x2="195.8" y2="542.004" stroke="url(#paint13_linear_93_271)" stroke-width="0.6"/>
<defs>
<linearGradient id="paint0_linear_93_271" x1="47" y1="0" x2="47" y2="48.0026" gradientUnits="userSpaceOnUse">
<stop stop-opacity="0.1"/>
<stop offset="0.566667" stop-opacity="0.509333"/>
<stop offset="1"/>
</linearGradient>
<linearGradient id="paint1_linear_93_271" x1="14" y1="44.5014" x2="49" y2="44.5014" gradientUnits="userSpaceOnUse">
<stop stop-opacity="0.1"/>
<stop offset="0.566667" stop-opacity="0.509333"/>
<stop offset="1"/>
</linearGradient>
<linearGradient id="paint2_linear_93_271" x1="243.003" y1="46.0014" x2="195" y2="46.0014" gradientUnits="userSpaceOnUse">
<stop stop-opacity="0.2"/>
<stop offset="0.716667" stop-opacity="0.509333"/>
<stop offset="1"/>
</linearGradient>
<linearGradient id="paint3_linear_93_271" x1="430.006" y1="195.501" x2="345.006" y2="196.501" gradientUnits="userSpaceOnUse">
<stop stop-opacity="0.1"/>
<stop offset="0.566667" stop-opacity="0.509333"/>
<stop offset="1"/>
</linearGradient>
<linearGradient id="paint4_linear_93_271" x1="409" y1="345.501" x2="345" y2="345.501" gradientUnits="userSpaceOnUse">
<stop stop-opacity="0.1"/>
<stop offset="0.566667" stop-opacity="0.509333"/>
<stop offset="1"/>
</linearGradient>
<linearGradient id="paint5_linear_93_271" x1="196.5" y1="24.0014" x2="196.5" y2="45.0014" gradientUnits="userSpaceOnUse">
<stop stop-opacity="0.1"/>
<stop offset="0.566667" stop-opacity="0.509333"/>
<stop offset="1"/>
</linearGradient>
<linearGradient id="paint6_linear_93_271" x1="346.5" y1="166.001" x2="346.5" y2="195.001" gradientUnits="userSpaceOnUse">
<stop stop-opacity="0.1"/>
<stop offset="0.566667" stop-opacity="0.509333"/>
<stop offset="1"/>
</linearGradient>
<linearGradient id="paint7_linear_93_271" x1="345.5" y1="381.008" x2="345" y2="343.008" gradientUnits="userSpaceOnUse">
<stop stop-opacity="0.1"/>
<stop offset="0.566667" stop-opacity="0.509333"/>
<stop offset="1"/>
</linearGradient>
<linearGradient id="paint8_linear_93_271" x1="45.5" y1="569.001" x2="45.5" y2="495.001" gradientUnits="userSpaceOnUse">
<stop stop-opacity="0.1"/>
<stop offset="0.566667" stop-opacity="0.509333"/>
<stop offset="1"/>
</linearGradient>
<linearGradient id="paint9_linear_93_271" x1="45.5" y1="267.001" x2="45.5" y2="193.001" gradientUnits="userSpaceOnUse">
<stop stop-opacity="0.1"/>
<stop offset="0.566667" stop-opacity="0.509333"/>
<stop offset="1"/>
</linearGradient>
<linearGradient id="paint10_linear_93_271" x1="47" y1="279.001" x2="47" y2="353.001" gradientUnits="userSpaceOnUse">
<stop stop-opacity="0.1"/>
<stop offset="0.566667" stop-opacity="0.509333"/>
<stop offset="1"/>
</linearGradient>
<linearGradient id="paint11_linear_93_271" x1="6.10352e-05" y1="494.001" x2="48.0027" y2="494.001" gradientUnits="userSpaceOnUse">
<stop stop-opacity="0.1"/>
<stop offset="0.566667" stop-opacity="0.509333"/>
<stop offset="1"/>
</linearGradient>
<linearGradient id="paint12_linear_93_271" x1="261.008" y1="494.501" x2="195.008" y2="495.501" gradientUnits="userSpaceOnUse">
<stop stop-opacity="0.1"/>
<stop offset="0.566667" stop-opacity="0.509333"/>
<stop offset="1"/>
</linearGradient>
<linearGradient id="paint13_linear_93_271" x1="195" y1="542.004" x2="195" y2="494.001" gradientUnits="userSpaceOnUse">
<stop stop-opacity="0.1"/>
<stop offset="0.566667" stop-opacity="0.509333"/>
<stop offset="1"/>
</linearGradient>
</defs>
</svg>
