<svg width="15" height="15" viewBox="0 0 15 15" fill="none" xmlns="http://www.w3.org/2000/svg">
<g clip-path="url(#clip0_103_263)">
<path d="M14.9015 4.35908C14.9015 3.04072 13.9318 1.98018 12.7335 1.98018C11.1105 1.9043 9.45521 1.875 7.76361 1.875H7.23626C5.54876 1.875 3.89056 1.9043 2.26751 1.98047C1.0722 1.98047 0.102473 3.04687 0.102473 4.36523C0.0292309 5.40791 -0.0018238 6.45088 -6.5984e-05 7.49385C-0.00299567 8.53682 0.0302075 9.58076 0.0995434 10.6257C0.0995434 11.944 1.06927 13.0134 2.26458 13.0134C3.96966 13.0925 5.71868 13.1276 7.497 13.1247C9.27825 13.1306 11.0224 13.0935 12.7294 13.0134C13.9277 13.0134 14.8974 11.944 14.8974 10.6257C14.9677 9.57978 14.9999 8.53682 14.997 7.49092C15.0036 6.44795 14.9718 5.404 14.9015 4.35908ZM6.06439 10.3679V4.61103L10.3124 7.48799L6.06439 10.3679Z" fill="black"/>
</g>
<defs>
<clipPath id="clip0_103_263">
<rect width="15" height="15" fill="white"/>
</clipPath>
</defs>
</svg>
